<?xml version="1.0" encoding="utf-8"?>
<!-- Generator: Adobe Illustrator 23.0.4, SVG Export Plug-In . SVG Version: 6.00 Build 0)  -->
<svg version="1.1" id="レイヤー_1" xmlns="http://www.w3.org/2000/svg" xmlns:xlink="http://www.w3.org/1999/xlink" x="0px"
	 y="0px" viewBox="0 0 35 35" style="enable-background:new 0 0 35 35;" xml:space="preserve">
<path d="M31.22,1H4.78C2.7,1,1,2.7,1,4.78v26.44C1,33.3,2.7,35,4.78,35h26.44C33.3,35,35,33.3,35,31.22V4.78C35,2.7,33.3,1,31.22,1z
	 M27.03,12.73c0.03,0.12,0.05,0.32,0.05,0.6c0,2.23-0.54,4.38-1.62,6.45c-1.11,2.2-2.68,3.95-4.69,5.24
	c-2.2,1.45-4.72,2.18-7.56,2.18c-2.72,0-5.21-0.73-7.47-2.18c0.34,0.03,0.73,0.05,1.16,0.05c2.26,0,4.28-0.7,6.08-2.09
	c-1.08,0-2.03-0.32-2.85-0.95C9.3,21.4,8.73,20.6,8.42,19.64c0.31,0.03,0.6,0.05,0.88,0.05c0.43,0,0.87-0.05,1.3-0.14
	c-1.11-0.25-2.04-0.82-2.78-1.72c-0.74-0.9-1.11-1.92-1.11-3.06v-0.09c0.68,0.4,1.41,0.62,2.18,0.65c-0.65-0.46-1.18-1.05-1.58-1.76
	c-0.4-0.71-0.6-1.49-0.6-2.34c0-0.85,0.23-1.66,0.7-2.44c1.21,1.52,2.68,2.72,4.43,3.62c1.75,0.9,3.61,1.39,5.59,1.48
	c-0.06-0.37-0.09-0.74-0.09-1.11c0-0.87,0.22-1.68,0.65-2.44c0.43-0.76,1.02-1.35,1.76-1.79c0.74-0.43,1.55-0.65,2.41-0.65
	c0.71,0,1.37,0.14,1.97,0.42c0.6,0.28,1.14,0.65,1.6,1.11c1.11-0.22,2.15-0.6,3.11-1.16c-0.37,1.14-1.08,2.04-2.13,2.69
	c0.93-0.12,1.86-0.39,2.78-0.79C28.81,11.17,27.99,12.02,27.03,12.73z"/>
</svg>
