<?xml version="1.0" encoding="utf-8"?>
<!-- Generator: Adobe Illustrator 23.0.4, SVG Export Plug-In . SVG Version: 6.00 Build 0)  -->
<svg version="1.1" id="レイヤー_1" xmlns="http://www.w3.org/2000/svg" xmlns:xlink="http://www.w3.org/1999/xlink" x="0px"
	 y="0px" viewBox="0 0 228 232" style="enable-background:new 0 0 228 232;" xml:space="preserve">
<g>
	<path d="M113.94,23.64c49.9,0,90.35,40.45,90.35,90.35s-40.45,90.35-90.35,90.35c-49.9,0-90.35-40.45-90.35-90.35
		S64.04,23.64,113.94,23.64 M113.94,2.52C52.47,2.52,2.46,52.52,2.46,113.99s50.01,111.47,111.47,111.47s111.47-50.01,111.47-111.47
		S175.4,2.52,113.94,2.52L113.94,2.52z"/>
	<g>
		<polygon points="109.79,121.77 96.5,102.95 51.16,102.95 109.79,186.2 		"/>
		<polygon points="90.45,94.38 140.1,94.38 120.77,121.77 120.77,186.2 185.42,94.38 161.88,57.22 68.35,57.22 45.13,94.38 
			90.45,94.38 		"/>
	</g>
</g>
</svg>
