<?xml version="1.0" encoding="utf-8"?>
<!-- Generator: Adobe Illustrator 23.0.4, SVG Export Plug-In . SVG Version: 6.00 Build 0)  -->
<svg version="1.1" id="artwork" xmlns="http://www.w3.org/2000/svg" xmlns:xlink="http://www.w3.org/1999/xlink" x="0px" y="0px"
	 viewBox="0 0 651 653" style="enable-background:new 0 0 651 653;" xml:space="preserve">
<style type="text/css">
	.st0{fill:#E1C483;}
</style>
<path d="M456.87,90.99c31.41,18.14,58.33,41.88,80,70.56c20.94,27.71,36.13,58.86,45.17,92.56c9.03,33.71,11.44,68.28,7.17,102.75
	c-4.43,35.68-15.87,69.7-34,101.11c-18.14,31.41-41.88,58.33-70.56,80c-27.71,20.94-58.86,36.13-92.56,45.17
	c-33.71,9.03-68.28,11.44-102.75,7.17c-35.68-4.43-69.7-15.87-101.11-34c-31.41-18.14-58.33-41.88-80-70.56
	c-20.94-27.71-36.13-58.86-45.17-92.56c-9.03-33.71-11.44-68.28-7.17-102.75c4.43-35.68,15.87-69.7,34-101.11s41.88-58.33,70.56-80
	c27.71-20.94,58.86-36.13,92.56-45.17c33.71-9.03,68.28-11.44,102.75-7.17C391.44,61.41,425.46,72.85,456.87,90.99 M463.29,79.87
	C328.66,2.15,156.51,48.27,78.78,182.9s-31.6,306.78,103.03,384.51s306.78,31.6,384.51-103.03S597.92,157.6,463.29,79.87
	L463.29,79.87z"/>
<g>
	<g>
		<circle class="st0" cx="459" cy="88.6" r="43.89"/>
		<path d="M435.03,130.12c-22.9-13.22-30.77-42.6-17.55-65.5c13.22-22.9,42.6-30.77,65.5-17.55c22.9,13.22,30.77,42.6,17.55,65.5
			C487.31,135.47,457.92,143.34,435.03,130.12z M478.91,54.11c-19.02-10.98-43.42-4.44-54.4,14.58
			c-10.98,19.02-4.44,43.42,14.58,54.4c19.02,10.98,43.42,4.44,54.4-14.58C504.47,89.49,497.93,65.09,478.91,54.11z"/>
	</g>
	<g>
		<path d="M478.14,113.28c1.49-1.38,2.8-2.99,3.89-4.83c5.15-8.73,3.36-19.63-3.71-26.3c-4.13,5.27-11.63,6.8-17.56,3.3
			c-6.45-3.81-8.6-12.12-4.8-18.58c2.48-4.21,6.87-6.58,11.42-6.68c2.55-0.1,5.24,0.45,7.83,1.83c14.3,7.61,19.73,27.64,10.52,42.75
			C483.68,108.15,481.09,111,478.14,113.28z"/>
		<path d="M428.18,92.73c0.45,1.98,1.19,3.92,2.24,5.78c4.99,8.82,15.32,12.72,24.63,9.94c-2.5-6.21-0.07-13.47,5.92-16.86
			c6.52-3.69,14.8-1.39,18.49,5.14c2.4,4.25,2.26,9.25,0.07,13.23c-1.19,2.26-3.01,4.31-5.5,5.87c-13.74,8.58-33.8,3.26-42.28-12.27
			C429.85,100.09,428.68,96.42,428.18,92.73z"/>
		<path d="M470.96,59.74c-1.94-0.6-3.99-0.93-6.12-0.95c-10.13-0.09-18.68,6.9-20.92,16.36c6.63,0.94,11.7,6.67,11.64,13.56
			c-0.07,7.49-6.2,13.51-13.69,13.44c-4.88-0.04-9.14-2.66-11.49-6.55c-1.36-2.16-2.23-4.76-2.33-7.7
			c-0.56-16.19,14.07-30.91,31.76-30.48C463.75,57.5,467.51,58.32,470.96,59.74z"/>
	</g>
</g>
<g>
	<g>
		<circle class="st0" cx="559.16" cy="187.1" r="43.89"/>
		<path d="M535.19,228.63c-22.9-13.22-30.77-42.6-17.55-65.5c13.22-22.9,42.6-30.77,65.5-17.55c22.9,13.22,30.77,42.6,17.55,65.5
			C587.47,233.97,558.08,241.85,535.19,228.63z M579.07,152.62c-19.02-10.98-43.42-4.44-54.4,14.58
			c-10.98,19.02-4.44,43.42,14.58,54.4c19.02,10.98,43.42,4.44,54.4-14.58C604.63,188,598.09,163.6,579.07,152.62z"/>
	</g>
	<g>
		<path d="M578.3,211.79c1.49-1.38,2.8-2.99,3.89-4.83c5.15-8.73,3.36-19.63-3.71-26.3c-4.13,5.27-11.63,6.8-17.56,3.3
			c-6.45-3.81-8.6-12.12-4.8-18.58c2.48-4.21,6.87-6.58,11.42-6.68c2.55-0.1,5.24,0.45,7.83,1.83c14.3,7.61,19.73,27.64,10.52,42.75
			C583.84,206.66,581.25,209.51,578.3,211.79z"/>
		<path d="M528.34,191.24c0.45,1.98,1.19,3.92,2.24,5.78c4.99,8.82,15.32,12.72,24.63,9.94c-2.5-6.21-0.07-13.47,5.92-16.86
			c6.52-3.69,14.8-1.39,18.49,5.14c2.4,4.25,2.26,9.25,0.07,13.23c-1.19,2.26-3.01,4.31-5.5,5.87c-13.74,8.58-33.8,3.26-42.28-12.27
			C530.01,198.6,528.84,194.93,528.34,191.24z"/>
		<path d="M571.12,158.24c-1.94-0.6-3.99-0.93-6.12-0.95c-10.13-0.09-18.68,6.9-20.92,16.36c6.63,0.94,11.7,6.67,11.64,13.56
			c-0.07,7.49-6.2,13.51-13.69,13.44c-4.88-0.04-9.14-2.66-11.49-6.55c-1.36-2.16-2.23-4.76-2.33-7.7
			c-0.56-16.19,14.07-30.91,31.76-30.48C563.91,156.01,567.67,156.83,571.12,158.24z"/>
	</g>
</g>
<g>
	<g>
		<circle class="st0" cx="600.36" cy="325.96" r="43.89"/>
		<path d="M576.38,367.48c-22.9-13.22-30.77-42.6-17.55-65.5c13.22-22.9,42.6-30.77,65.5-17.55c22.9,13.22,30.77,42.6,17.55,65.5
			C628.66,372.83,599.28,380.7,576.38,367.48z M620.27,291.47c-19.02-10.98-43.42-4.44-54.4,14.58
			c-10.98,19.02-4.44,43.42,14.58,54.4c19.02,10.98,43.42,4.44,54.4-14.58C645.82,326.85,639.29,302.45,620.27,291.47z"/>
	</g>
	<g>
		<path d="M619.5,350.64c1.49-1.38,2.8-2.99,3.89-4.83c5.15-8.73,3.36-19.63-3.71-26.3c-4.13,5.27-11.63,6.8-17.56,3.3
			c-6.45-3.81-8.6-12.12-4.8-18.58c2.48-4.21,6.87-6.58,11.42-6.68c2.55-0.1,5.24,0.45,7.83,1.83c14.3,7.61,19.73,27.64,10.52,42.75
			C625.04,345.51,622.45,348.36,619.5,350.64z"/>
		<path d="M569.54,330.09c0.45,1.98,1.19,3.92,2.24,5.78c4.99,8.82,15.32,12.72,24.63,9.94c-2.5-6.21-0.07-13.47,5.92-16.86
			c6.52-3.69,14.8-1.39,18.49,5.14c2.4,4.25,2.26,9.25,0.07,13.23c-1.19,2.26-3.01,4.31-5.5,5.87c-13.74,8.58-33.8,3.26-42.28-12.27
			C571.21,337.45,570.04,333.78,569.54,330.09z"/>
		<path d="M612.32,297.1c-1.94-0.6-3.99-0.93-6.12-0.95c-10.13-0.09-18.68,6.9-20.92,16.36c6.63,0.94,11.7,6.67,11.64,13.56
			c-0.07,7.49-6.2,13.51-13.69,13.44c-4.88-0.04-9.14-2.66-11.49-6.55c-1.36-2.16-2.23-4.76-2.33-7.7
			c-0.56-16.19,14.07-30.91,31.76-30.48C605.11,294.86,608.87,295.68,612.32,297.1z"/>
	</g>
</g>
<g>
	<g>
		<circle class="st0" cx="184.27" cy="564.45" r="43.89"/>
		<path d="M160.29,605.98c-22.9-13.22-30.77-42.6-17.55-65.5c13.22-22.9,42.6-30.77,65.5-17.55c22.9,13.22,30.77,42.6,17.55,65.5
			C212.57,611.32,183.19,619.2,160.29,605.98z M204.18,529.96c-19.02-10.98-43.42-4.44-54.4,14.58
			c-10.98,19.02-4.44,43.42,14.58,54.4c19.02,10.98,43.42,4.44,54.4-14.58C229.73,565.35,223.19,540.94,204.18,529.96z"/>
	</g>
	<g>
		<path d="M203.41,589.14c1.49-1.38,2.8-2.99,3.89-4.83c5.15-8.73,3.36-19.63-3.71-26.3c-4.13,5.27-11.63,6.8-17.56,3.3
			c-6.45-3.81-8.6-12.12-4.8-18.58c2.48-4.21,6.87-6.58,11.42-6.68c2.55-0.1,5.24,0.45,7.83,1.83c14.3,7.61,19.73,27.64,10.52,42.75
			C208.95,584.01,206.35,586.86,203.41,589.14z"/>
		<path d="M153.44,568.58c0.45,1.98,1.19,3.92,2.24,5.78c4.99,8.82,15.32,12.72,24.63,9.94c-2.5-6.21-0.07-13.47,5.92-16.86
			c6.52-3.69,14.8-1.39,18.49,5.14c2.4,4.25,2.26,9.25,0.07,13.23c-1.19,2.26-3.01,4.31-5.5,5.87c-13.74,8.58-33.8,3.26-42.28-12.27
			C155.12,575.94,153.94,572.28,153.44,568.58z"/>
		<path d="M196.22,535.59c-1.94-0.6-3.99-0.93-6.12-0.95c-10.13-0.09-18.68,6.9-20.92,16.36c6.63,0.94,11.7,6.67,11.64,13.56
			c-0.07,7.49-6.2,13.51-13.69,13.44c-4.88-0.04-9.14-2.66-11.49-6.55c-1.36-2.16-2.23-4.76-2.33-7.7
			c-0.56-16.19,14.07-30.91,31.76-30.48C189.02,533.36,192.78,534.18,196.22,535.59z"/>
	</g>
</g>
<g>
	<g>
		<circle class="st0" cx="80.66" cy="463.37" r="43.89"/>
		<path d="M56.68,504.89c-22.9-13.22-30.77-42.6-17.55-65.5c13.22-22.9,42.6-30.77,65.5-17.55c22.9,13.22,30.77,42.6,17.55,65.5
			C108.96,510.24,79.58,518.11,56.68,504.89z M100.57,428.88c-19.02-10.98-43.42-4.44-54.4,14.58
			c-10.98,19.02-4.44,43.42,14.58,54.4c19.02,10.98,43.42,4.44,54.4-14.58C126.12,464.26,119.59,439.86,100.57,428.88z"/>
	</g>
	<g>
		<path d="M99.8,488.05c1.49-1.38,2.8-2.99,3.89-4.83c5.15-8.73,3.36-19.63-3.71-26.3c-4.13,5.27-11.63,6.8-17.56,3.3
			c-6.45-3.81-8.6-12.12-4.8-18.58c2.48-4.21,6.87-6.58,11.42-6.68c2.55-0.1,5.24,0.45,7.83,1.83c14.3,7.61,19.73,27.64,10.52,42.75
			C105.34,482.93,102.75,485.77,99.8,488.05z"/>
		<path d="M49.84,467.5c0.45,1.98,1.19,3.92,2.24,5.78c4.99,8.82,15.32,12.72,24.63,9.94c-2.5-6.21-0.07-13.47,5.92-16.86
			c6.52-3.69,14.8-1.39,18.49,5.14c2.4,4.25,2.26,9.25,0.07,13.23c-1.19,2.26-3.01,4.31-5.5,5.87c-13.74,8.58-33.8,3.26-42.28-12.27
			C51.51,474.86,50.34,471.19,49.84,467.5z"/>
		<path d="M92.62,434.51c-1.94-0.6-3.99-0.93-6.12-0.95c-10.13-0.09-18.68,6.9-20.92,16.36c6.63,0.94,11.7,6.67,11.64,13.56
			c-0.07,7.49-6.2,13.51-13.69,13.44c-4.88-0.04-9.14-2.66-11.49-6.55c-1.36-2.16-2.23-4.76-2.33-7.7
			c-0.56-16.19,14.07-30.91,31.76-30.48C85.41,432.27,89.17,433.09,92.62,434.51z"/>
	</g>
</g>
<g>
	<g>
		<circle class="st0" cx="50.37" cy="325.96" r="43.89"/>
		<path d="M26.4,367.48c-22.9-13.22-30.77-42.6-17.55-65.5c13.22-22.9,42.6-30.77,65.5-17.55c22.9,13.22,30.77,42.6,17.55,65.5
			C78.68,372.83,49.3,380.7,26.4,367.48z M70.29,291.47c-19.02-10.98-43.42-4.44-54.4,14.58c-10.98,19.02-4.44,43.42,14.58,54.4
			c19.02,10.98,43.42,4.44,54.4-14.58C95.84,326.85,89.3,302.45,70.29,291.47z"/>
	</g>
	<g>
		<path d="M69.51,350.64c1.49-1.38,2.8-2.99,3.89-4.83c5.15-8.73,3.36-19.63-3.71-26.3c-4.13,5.27-11.63,6.8-17.56,3.3
			c-6.45-3.81-8.6-12.12-4.8-18.58c2.48-4.21,6.87-6.58,11.42-6.68c2.55-0.1,5.24,0.45,7.83,1.83c14.3,7.61,19.73,27.64,10.52,42.75
			C75.05,345.51,72.46,348.36,69.51,350.64z"/>
		<path d="M19.55,330.09c0.45,1.98,1.19,3.92,2.24,5.78c4.99,8.82,15.32,12.72,24.63,9.94c-2.5-6.21-0.07-13.47,5.92-16.86
			c6.52-3.69,14.8-1.39,18.49,5.14c2.4,4.25,2.26,9.25,0.07,13.23c-1.19,2.26-3.01,4.31-5.5,5.87c-13.74,8.58-33.8,3.26-42.28-12.27
			C21.22,337.45,20.05,333.78,19.55,330.09z"/>
		<path d="M62.33,297.1c-1.94-0.6-3.99-0.93-6.12-0.95c-10.13-0.09-18.68,6.9-20.92,16.36c6.63,0.94,11.7,6.67,11.64,13.56
			c-0.07,7.49-6.2,13.51-13.69,13.44c-4.88-0.04-9.14-2.66-11.49-6.55c-1.36-2.16-2.23-4.76-2.33-7.7
			c-0.56-16.19,14.07-30.91,31.76-30.48C55.12,294.86,58.88,295.68,62.33,297.1z"/>
	</g>
</g>
<g>
	<g>
		<circle class="st0" cx="183.25" cy="85.47" r="43.89"/>
		<path d="M159.28,126.99c-22.9-13.22-30.77-42.6-17.55-65.5c13.22-22.9,42.6-30.77,65.5-17.55c22.9,13.22,30.77,42.6,17.55,65.5
			C211.55,132.34,182.17,140.21,159.28,126.99z M203.16,50.98c-19.02-10.98-43.42-4.44-54.4,14.58
			c-10.98,19.02-4.44,43.42,14.58,54.4c19.02,10.98,43.42,4.44,54.4-14.58C228.72,86.36,222.18,61.96,203.16,50.98z"/>
	</g>
	<g>
		<path d="M202.39,110.15c1.49-1.38,2.8-2.99,3.89-4.83c5.15-8.73,3.36-19.63-3.71-26.3c-4.13,5.27-11.63,6.8-17.56,3.3
			c-6.45-3.81-8.6-12.12-4.8-18.58c2.48-4.21,6.87-6.58,11.42-6.68c2.55-0.1,5.24,0.45,7.83,1.83c14.3,7.61,19.73,27.64,10.52,42.75
			C207.93,105.03,205.34,107.87,202.39,110.15z"/>
		<path d="M152.43,89.6c0.45,1.98,1.19,3.92,2.24,5.78c4.99,8.82,15.32,12.72,24.63,9.94c-2.5-6.21-0.07-13.47,5.92-16.86
			c6.52-3.69,14.8-1.39,18.49,5.14c2.4,4.25,2.26,9.25,0.07,13.23c-1.19,2.26-3.01,4.31-5.5,5.87c-13.74,8.58-33.8,3.26-42.28-12.27
			C154.1,96.96,152.93,93.29,152.43,89.6z"/>
		<path d="M195.21,56.61c-1.94-0.6-3.99-0.93-6.12-0.95c-10.13-0.09-18.68,6.9-20.92,16.36c6.63,0.94,11.7,6.67,11.64,13.56
			c-0.07,7.49-6.2,13.51-13.69,13.44c-4.88-0.04-9.14-2.66-11.49-6.55c-1.36-2.16-2.23-4.76-2.33-7.7
			c-0.56-16.19,14.07-30.91,31.76-30.48C188,54.38,191.76,55.2,195.21,56.61z"/>
	</g>
</g>
<g>
	<g>
		<circle class="st0" cx="323.73" cy="50.06" r="43.89"/>
		<path d="M299.75,91.59c-22.9-13.22-30.77-42.6-17.55-65.5c13.22-22.9,42.6-30.77,65.5-17.55c22.9,13.22,30.77,42.6,17.55,65.5
			C352.03,96.93,322.65,104.81,299.75,91.59z M343.64,15.57c-19.02-10.98-43.42-4.44-54.4,14.58c-10.98,19.02-4.44,43.42,14.58,54.4
			c19.02,10.98,43.42,4.44,54.4-14.58C369.19,50.96,362.65,26.55,343.64,15.57z"/>
	</g>
	<g>
		<path d="M342.87,74.75c1.49-1.38,2.8-2.99,3.89-4.83c5.15-8.73,3.36-19.63-3.71-26.3c-4.13,5.27-11.63,6.8-17.56,3.3
			c-6.45-3.81-8.6-12.12-4.8-18.58c2.48-4.21,6.87-6.58,11.42-6.68c2.55-0.1,5.24,0.45,7.83,1.83c14.3,7.61,19.73,27.64,10.52,42.75
			C348.41,69.62,345.82,72.47,342.87,74.75z"/>
		<path d="M292.91,54.19c0.45,1.98,1.19,3.92,2.24,5.78c4.99,8.82,15.32,12.72,24.63,9.94c-2.5-6.21-0.07-13.47,5.92-16.86
			c6.52-3.69,14.8-1.39,18.49,5.14c2.4,4.25,2.26,9.25,0.07,13.23c-1.19,2.26-3.01,4.31-5.5,5.87c-13.74,8.58-33.8,3.26-42.28-12.27
			C294.58,61.55,293.41,57.89,292.91,54.19z"/>
		<path d="M335.69,21.2c-1.94-0.6-3.99-0.93-6.12-0.95c-10.13-0.09-18.68,6.9-20.92,16.36c6.63,0.94,11.7,6.67,11.64,13.56
			c-0.07,7.49-6.2,13.51-13.69,13.44c-4.88-0.04-9.14-2.66-11.49-6.55c-1.36-2.16-2.23-4.76-2.33-7.7
			c-0.56-16.19,14.07-30.91,31.76-30.48C328.48,18.97,332.24,19.79,335.69,21.2z"/>
	</g>
</g>
<g>
	<g>
		<circle class="st0" cx="83.01" cy="188.31" r="43.89"/>
		<path d="M59.04,229.83c-22.9-13.22-30.77-42.6-17.55-65.5c13.22-22.9,42.6-30.77,65.5-17.55c22.9,13.22,30.77,42.6,17.55,65.5
			C111.32,235.18,81.94,243.05,59.04,229.83z M102.92,153.82c-19.02-10.98-43.42-4.44-54.4,14.58
			c-10.98,19.02-4.44,43.42,14.58,54.4c19.02,10.98,43.42,4.44,54.4-14.58C128.48,189.2,121.94,164.8,102.92,153.82z"/>
	</g>
	<g>
		<path d="M102.15,212.99c1.49-1.38,2.8-2.99,3.89-4.83c5.15-8.73,3.36-19.63-3.71-26.3c-4.13,5.27-11.63,6.8-17.56,3.3
			c-6.45-3.81-8.6-12.12-4.8-18.58c2.48-4.21,6.87-6.58,11.42-6.68c2.55-0.1,5.24,0.45,7.83,1.83c14.3,7.61,19.73,27.64,10.52,42.75
			C107.69,207.87,105.1,210.72,102.15,212.99z"/>
		<path d="M52.19,192.44c0.45,1.98,1.19,3.92,2.24,5.78c4.99,8.82,15.32,12.72,24.63,9.94c-2.5-6.21-0.07-13.47,5.92-16.86
			c6.52-3.69,14.8-1.39,18.49,5.14c2.4,4.25,2.26,9.25,0.07,13.23c-1.19,2.26-3.01,4.31-5.5,5.87c-13.74,8.58-33.8,3.26-42.28-12.27
			C53.86,199.8,52.69,196.13,52.19,192.44z"/>
		<path d="M94.97,159.45c-1.94-0.6-3.99-0.93-6.12-0.95c-10.13-0.09-18.68,6.9-20.92,16.36c6.63,0.94,11.7,6.67,11.64,13.56
			c-0.07,7.49-6.2,13.51-13.69,13.44c-4.88-0.04-9.14-2.66-11.49-6.55c-1.36-2.16-2.23-4.76-2.33-7.7
			c-0.56-16.19,14.07-30.91,31.76-30.48C87.76,157.22,91.52,158.04,94.97,159.45z"/>
	</g>
</g>
<g>
	<g>
		<circle class="st0" cx="559.55" cy="463.44" r="43.89"/>
		<path d="M535.58,504.96c-22.9-13.22-30.77-42.6-17.55-65.5c13.22-22.9,42.6-30.77,65.5-17.55c22.9,13.22,30.77,42.6,17.55,65.5
			C587.86,510.31,558.47,518.18,535.58,504.96z M579.46,428.95c-19.02-10.98-43.42-4.44-54.4,14.58
			c-10.98,19.02-4.44,43.42,14.58,54.4c19.02,10.98,43.42,4.44,54.4-14.58C605.02,464.33,598.48,439.93,579.46,428.95z"/>
	</g>
	<g>
		<path d="M578.69,488.12c1.49-1.38,2.8-2.99,3.89-4.83c5.15-8.73,3.36-19.63-3.71-26.3c-4.13,5.27-11.63,6.8-17.56,3.3
			c-6.45-3.81-8.6-12.12-4.8-18.58c2.48-4.21,6.87-6.58,11.42-6.68c2.55-0.1,5.24,0.45,7.83,1.83c14.3,7.61,19.73,27.64,10.52,42.75
			C584.23,483,581.64,485.84,578.69,488.12z"/>
		<path d="M528.73,467.57c0.45,1.98,1.19,3.92,2.24,5.78c4.99,8.82,15.32,12.72,24.63,9.94c-2.5-6.21-0.07-13.47,5.92-16.86
			c6.52-3.69,14.8-1.39,18.49,5.14c2.4,4.25,2.26,9.25,0.07,13.23c-1.19,2.26-3.01,4.31-5.5,5.87c-13.74,8.58-33.8,3.26-42.28-12.27
			C530.4,474.93,529.23,471.26,528.73,467.57z"/>
		<path d="M571.51,434.58c-1.94-0.6-3.99-0.93-6.12-0.95c-10.13-0.09-18.68,6.9-20.92,16.36c6.63,0.94,11.7,6.67,11.64,13.56
			c-0.07,7.49-6.2,13.51-13.69,13.44c-4.88-0.04-9.14-2.66-11.49-6.55c-1.36-2.16-2.23-4.76-2.33-7.7
			c-0.56-16.19,14.07-30.91,31.76-30.48C564.3,432.35,568.06,433.17,571.51,434.58z"/>
	</g>
</g>
<g>
	<g>
		<circle class="st0" cx="458.9" cy="562.91" r="43.89"/>
		<path d="M434.93,604.43c-22.9-13.22-30.77-42.6-17.55-65.5c13.22-22.9,42.6-30.77,65.5-17.55c22.9,13.22,30.77,42.6,17.55,65.5
			C487.21,609.78,457.82,617.65,434.93,604.43z M478.81,528.42c-19.02-10.98-43.42-4.44-54.4,14.58
			c-10.98,19.02-4.44,43.42,14.58,54.4c19.02,10.98,43.42,4.44,54.4-14.58C504.37,563.8,497.83,539.4,478.81,528.42z"/>
	</g>
	<g>
		<path d="M478.04,587.59c1.49-1.38,2.8-2.99,3.89-4.83c5.15-8.73,3.36-19.63-3.71-26.3c-4.13,5.27-11.63,6.8-17.56,3.3
			c-6.45-3.81-8.6-12.12-4.8-18.58c2.48-4.21,6.87-6.58,11.42-6.68c2.55-0.1,5.24,0.45,7.83,1.83c14.3,7.61,19.73,27.64,10.52,42.75
			C483.58,582.47,480.99,585.31,478.04,587.59z"/>
		<path d="M428.08,567.04c0.45,1.98,1.19,3.92,2.24,5.78c4.99,8.82,15.32,12.72,24.63,9.94c-2.5-6.21-0.07-13.47,5.92-16.86
			c6.52-3.69,14.8-1.39,18.49,5.14c2.4,4.25,2.26,9.25,0.07,13.23c-1.19,2.26-3.01,4.31-5.5,5.87c-13.74,8.58-33.8,3.26-42.28-12.27
			C429.75,574.4,428.58,570.73,428.08,567.04z"/>
		<path d="M470.86,534.05c-1.94-0.6-3.99-0.93-6.12-0.95c-10.13-0.09-18.68,6.9-20.92,16.36c6.63,0.94,11.7,6.67,11.64,13.56
			c-0.07,7.49-6.2,13.51-13.69,13.44c-4.88-0.04-9.14-2.66-11.49-6.55c-1.36-2.16-2.23-4.76-2.33-7.7
			c-0.56-16.19,14.07-30.91,31.76-30.48C463.65,531.82,467.41,532.64,470.86,534.05z"/>
	</g>
</g>
<g>
	<g>
		<circle class="st0" cx="323.73" cy="599.18" r="43.89"/>
		<path d="M299.75,640.71c-22.9-13.22-30.77-42.6-17.55-65.5c13.22-22.9,42.6-30.77,65.5-17.55c22.9,13.22,30.77,42.6,17.55,65.5
			C352.03,646.06,322.65,653.93,299.75,640.71z M343.64,564.7c-19.02-10.98-43.42-4.44-54.4,14.58
			c-10.98,19.02-4.44,43.42,14.58,54.4c19.02,10.98,43.42,4.44,54.4-14.58C369.19,600.08,362.65,575.68,343.64,564.7z"/>
	</g>
	<g>
		<path d="M342.87,623.87c1.49-1.38,2.8-2.99,3.89-4.83c5.15-8.73,3.36-19.63-3.71-26.3c-4.13,5.27-11.63,6.8-17.56,3.3
			c-6.45-3.81-8.6-12.12-4.8-18.58c2.48-4.21,6.87-6.58,11.42-6.68c2.55-0.1,5.24,0.45,7.83,1.83c14.3,7.61,19.73,27.64,10.52,42.75
			C348.41,618.74,345.82,621.59,342.87,623.87z"/>
		<path d="M292.91,603.32c0.45,1.98,1.19,3.92,2.24,5.78c4.99,8.82,15.32,12.72,24.63,9.94c-2.5-6.21-0.07-13.47,5.92-16.86
			c6.52-3.69,14.8-1.39,18.49,5.14c2.4,4.25,2.26,9.25,0.07,13.23c-1.19,2.26-3.01,4.31-5.5,5.87c-13.74,8.58-33.8,3.26-42.28-12.27
			C294.58,610.68,293.41,607.01,292.91,603.32z"/>
		<path d="M335.69,570.33c-1.94-0.6-3.99-0.93-6.12-0.95c-10.13-0.09-18.68,6.9-20.92,16.36c6.63,0.94,11.7,6.67,11.64,13.56
			c-0.07,7.49-6.2,13.51-13.69,13.44c-4.88-0.04-9.14-2.66-11.49-6.55c-1.36-2.16-2.23-4.76-2.33-7.7
			c-0.56-16.19,14.07-30.91,31.76-30.48C328.48,568.09,332.24,568.91,335.69,570.33z"/>
	</g>
</g>
</svg>
