<?xml version="1.0" encoding="utf-8"?>
<!-- Generator: Adobe Illustrator 24.0.0, SVG Export Plug-In . SVG Version: 6.00 Build 0)  -->
<svg version="1.1" id="artwork" xmlns="http://www.w3.org/2000/svg" xmlns:xlink="http://www.w3.org/1999/xlink" x="0px" y="0px"
	 viewBox="0 0 320 110" style="enable-background:new 0 0 320 110;" xml:space="preserve">
<style type="text/css">
	.st0{fill:#FFFFFF;}
	.st1{fill:#E68F24;}
	.st2{fill:#A86B11;}
</style>
<g>
	<g>
		<circle class="st0" cx="54.43" cy="54.67" r="52.09"/>
		<path d="M21.66,61.11c-1.58-1.62-2.45-4.32-2.45-7.72c0-3.4,0.83-6.1,2.45-7.72c1.29-1.33,3.07-2.03,5.15-2.03s3.86,0.7,5.15,2.03
			c1.62,1.66,2.45,4.27,2.45,7.72c0,3.4-0.83,6.1-2.45,7.72c-1.29,1.33-3.11,2.03-5.15,2.03C24.73,63.15,22.95,62.44,21.66,61.11z
			 M23.36,53.39c0,4.11,1.16,6.22,3.44,6.22s3.44-2.12,3.44-6.22c0-4.11-1.16-6.22-3.44-6.22S23.36,49.29,23.36,53.39z"/>
		<path d="M76.91,61.11c-1.58-1.62-2.45-4.32-2.45-7.72c0-3.4,0.83-6.1,2.45-7.72c1.29-1.33,3.07-2.03,5.15-2.03s3.86,0.7,5.15,2.03
			c1.62,1.66,2.45,4.27,2.45,7.72c0,3.4-0.83,6.1-2.45,7.72c-1.29,1.33-3.11,2.03-5.15,2.03C79.98,63.15,78.2,62.44,76.91,61.11z
			 M78.62,53.39c0,4.11,1.16,6.22,3.44,6.22s3.44-2.12,3.44-6.22c0-4.11-1.16-6.22-3.44-6.22S78.62,49.29,78.62,53.39z"/>
		<g>
			<circle class="st1" cx="54.43" cy="59.86" r="16.52"/>
			<path class="st2" d="M66.16,62.52H42.71c-1.47,0-2.66-1.19-2.66-2.66s1.19-2.66,2.66-2.66h23.45c1.47,0,2.66,1.19,2.66,2.66
				S67.62,62.52,66.16,62.52z"/>
		</g>
	</g>
	<g>
		<path d="M170.22,78.85c0,0-11.14,0.34-14.52,0c-4.96-0.5-8.9-1.5-11.77-4.51c-2.87-3.01-4.3-6.95-4.3-11.84h45.95v-8.18
			c0-10.34-2.77-18.7-8.32-25.09c-5.83-6.67-13.72-10.01-23.68-10.01c-9.68,0-17.39,3.24-23.12,9.73
			c-5.92,6.77-8.88,16.02-8.88,27.77c0,25.09,11.32,37.64,33.97,37.64c2.81,0,14.66,0,14.66,0L170.22,78.85z M141.33,42.06
			c2.26-5.07,6.34-7.61,12.26-7.61c5.92,0,10.01,2.54,12.26,7.61c1.03,2.26,1.6,4.89,1.69,7.89h-27.91
			C139.73,46.95,140.29,44.31,141.33,42.06z"/>
		<path d="M284.86,19.22c-1.08,0-12.91,0.03-13.91,0.07v15.55c0.75-0.07,12.32-0.11,13.11-0.11c9.08,0,13.63,3.85,13.63,11.56v3.67
			h-17.28c-8.15,0-14.35,2-18.62,5.99c-4.26,4-6.39,9.09-6.39,15.29c0,6.86,2.07,12.4,6.2,16.63c4.13,4.23,10.34,6.34,18.61,6.34
			c7.33,0,13.34-2.35,18.04-7.05v6.34h17.9V45.16C316.15,27.87,305.72,19.22,284.86,19.22z M297.69,66.45
			c0,3.76-0.56,6.48-1.68,8.18c-2.06,3.1-6.21,4.65-12.47,4.65c-7.01,0-10.51-2.82-10.51-8.46c0-5.54,3.41-8.32,10.23-8.32h14.44
			V66.45z"/>
		<path d="M227.63,48.83l-11.56-1.13c-5.07-0.47-7.61-2.58-7.61-6.34c0-4.7,3.48-7.05,10.43-7.05c3.1,0,29.68,0,29.68,0V19.22
			c0,0-26.55,0-29.4,0c-7.89,0-14.47,1.97-19.74,5.92c-5.73,4.32-8.6,10.15-8.6,17.48c0,12.31,7.14,19.17,21.43,20.58l11.56,1.13
			c5.17,0.47,7.75,2.73,7.75,6.77c0,5.07-4.32,7.61-12.97,7.61c-2.17,0-26.37,0-26.37,0v15.65c0,0,24.02,0,26.09,0
			c9.11,0,16.49-1.97,22.13-5.92c6.01-4.23,9.02-10.24,9.02-18.04C249.48,57.42,242.2,50.23,227.63,48.83z"/>
	</g>
</g>
</svg>
