<?xml version="1.0" encoding="utf-8"?>
<!-- Generator: Adobe Illustrator 23.0.4, SVG Export Plug-In . SVG Version: 6.00 Build 0)  -->
<svg version="1.1" id="artwork" xmlns="http://www.w3.org/2000/svg" xmlns:xlink="http://www.w3.org/1999/xlink" x="0px" y="0px"
	 viewBox="0 0 245 249" style="enable-background:new 0 0 245 249;" xml:space="preserve">
<style type="text/css">
	.st0{fill:#E1C483;}
</style>
<g>
	<path class="st0" d="M121.97,26.22c53.41,0,96.71,43.3,96.71,96.71s-43.3,96.71-96.71,96.71c-53.41,0-96.71-43.3-96.71-96.71
		S68.56,26.22,121.97,26.22 M121.97,3.61C56.18,3.61,2.66,57.14,2.66,122.93s53.53,119.32,119.32,119.32s119.32-53.53,119.32-119.32
		S187.76,3.61,121.97,3.61L121.97,3.61z"/>
	<g>
		<polygon class="st0" points="117.53,131.26 103.3,111.11 54.78,111.11 117.53,200.21 		"/>
		<polygon class="st0" points="96.83,101.94 149.98,101.94 129.28,131.26 129.28,200.21 198.49,101.94 173.28,62.16 73.17,62.16 
			48.32,101.94 96.83,101.94 		"/>
	</g>
</g>
</svg>
