<?xml version="1.0" encoding="utf-8"?>
<!-- Generator: Adobe Illustrator 23.0.4, SVG Export Plug-In . SVG Version: 6.00 Build 0)  -->
<svg version="1.1" id="レイヤー_1" xmlns="http://www.w3.org/2000/svg" xmlns:xlink="http://www.w3.org/1999/xlink" x="0px"
	 y="0px" viewBox="0 0 43 58" style="enable-background:new 0 0 43 58;" xml:space="preserve">
<g>
	<path d="M11.9,45.33c-3.65-5.25-6.05-8.79-7.22-10.61C3,32.1,1.87,29.89,1.29,28.11s-0.88-3.85-0.88-6.18
		c0-3.79,0.95-7.29,2.84-10.5s4.45-5.76,7.66-7.66s6.71-2.84,10.5-2.84s7.29,0.95,10.5,2.84s5.76,4.45,7.66,7.66
		s2.84,6.71,2.84,10.5c0,2.33-0.29,4.39-0.88,6.18s-1.71,3.99-3.39,6.62c-1.17,1.82-3.57,5.36-7.22,10.61l-7.33,10.5
		c-0.51,0.73-1.24,1.09-2.19,1.09s-1.68-0.37-2.19-1.09C17.33,53.06,14.89,49.56,11.9,45.33z M27.59,28.11
		c1.71-1.71,2.57-3.77,2.57-6.18s-0.86-4.47-2.57-6.18s-3.77-2.57-6.18-2.57s-4.47,0.86-6.18,2.57s-2.57,3.77-2.57,6.18
		s0.86,4.47,2.57,6.18s3.77,2.57,6.18,2.57S25.88,29.82,27.59,28.11z"/>
</g>
</svg>
