<?xml version="1.0" encoding="utf-8"?>
<!-- Generator: Adobe Illustrator 24.0.0, SVG Export Plug-In . SVG Version: 6.00 Build 0)  -->
<svg version="1.1" id="artwork" xmlns="http://www.w3.org/2000/svg" xmlns:xlink="http://www.w3.org/1999/xlink" x="0px" y="0px"
	 viewBox="0 0 458 484" style="enable-background:new 0 0 458 484;" xml:space="preserve">
<style type="text/css">
	.st0{fill:#9C98B1;}
	.st1{fill:#FFFFFF;}
	.st2{fill:#DD8C1C;}
	.st3{fill:#D0CEBF;}
</style>
<g>
	<path d="M222.78,366.82c-88.57,0-160.62-72.06-160.62-160.62S134.21,45.57,222.78,45.57S383.4,117.63,383.4,206.2
		S311.35,366.82,222.78,366.82z M222.78,56.24c-82.69,0-149.96,67.27-149.96,149.96s67.27,149.96,149.96,149.96
		c82.69,0,149.96-67.27,149.96-149.96S305.46,56.24,222.78,56.24z"/>
	<path class="st0" d="M204.71,244.06"/>
	<path d="M226.22,396.12c-41.09,0-78.8-21.92-99.22-57.41c-51.87-16.61-74.3-41.59-83.11-55.17
		c-16.96-26.14-28.59-70.17-29.08-72.04l-2.71-10.35l102.8,3.17c4.71-19.9,14.66-38.09,29.01-52.95
		c14.64-15.16,32.89-25.86,53.07-31.17c2.53-16.6,5.6-33.86,9.14-51.4l10.84-53.65l3.38,37.04l8.45-47.81l8.34,46.52l3.26-35.75
		l10.84,53.65c3.65,18.07,6.79,35.83,9.36,52.87c38.45,12.09,67.82,43.75,77.02,82.89l110.8-3.42l-2.71,10.35
		c-0.49,1.86-12.12,45.9-29.08,72.04c-22.76,35.08-70.34,51.86-92.9,58.09C302.95,375.33,265.91,396.12,226.22,396.12z
		 M33.28,217.82c4.37,14.33,13.18,40.3,24.03,57.01c18.17,28,56.34,43.06,77.47,49.55l3.14,0.96l1.56,2.89
		c17.21,32,50.44,51.88,86.74,51.88c35.1,0,67.8-18.92,85.34-49.37l1.67-2.9l3.24-0.84c19.12-4.98,65.85-20.04,86.7-52.17
		c10.86-16.74,19.66-42.7,24.03-57.01l-102.83,3.18l-1.17-6.86c-6.48-37.86-34.67-68.65-71.84-78.45l-5.12-1.35l-0.42-2.89
		l-3.55,38.91L228.9,95.68l-13.63,77.16l-3.78-41.41l-0.29,1.99l-5.45,1.15c-19.2,4.06-36.61,13.72-50.33,27.93
		c-13.75,14.24-22.8,32.01-26.16,51.41l-1.19,6.84L33.28,217.82z"/>
	<circle class="st1" cx="226.22" cy="230.85" r="106.42"/>
	<circle class="st1" cx="226.22" cy="281.71" r="106.42"/>
	<path class="st1" d="M132.69,212.88l-110.14-3.4c0,0,11.6,44.35,28.05,69.7c28.47,43.88,100.03,57.58,100.03,57.58"/>
	<path class="st1" d="M309.87,336.77c0,0,71.56-13.71,100.03-57.58c16.45-25.36,28.05-69.7,28.05-69.7l-110.14,3.4"/>
	<path class="st1" d="M161.1,244.02c-3.22-3.31-5-8.82-5-15.77c0-6.95,1.7-12.46,5-15.77c2.63-2.71,6.27-4.15,10.51-4.15
		s7.88,1.44,10.51,4.15c3.31,3.39,5,8.73,5,15.77c0,6.95-1.7,12.46-5,15.77c-2.63,2.71-6.36,4.15-10.51,4.15
		C167.37,248.17,163.73,246.73,161.1,244.02z M164.58,228.25c0,8.39,2.37,12.72,7.04,12.72s7.04-4.32,7.04-12.72
		c0-8.39-2.37-12.71-7.04-12.71S164.58,219.86,164.58,228.25z"/>
	<path d="M161.1,244.02c-3.22-3.31-5-8.82-5-15.77c0-6.95,1.7-12.46,5-15.77c2.63-2.71,6.27-4.15,10.51-4.15s7.88,1.44,10.51,4.15
		c3.31,3.39,5,8.73,5,15.77c0,6.95-1.7,12.46-5,15.77c-2.63,2.71-6.36,4.15-10.51,4.15C167.37,248.17,163.73,246.73,161.1,244.02z
		 M164.58,228.25c0,8.39,2.37,12.72,7.04,12.72s7.04-4.32,7.04-12.72c0-8.39-2.37-12.71-7.04-12.71S164.58,219.86,164.58,228.25z"/>
	<path d="M284.31,137.65l-34.13,104.11l36.69,15.36l-5.73,42.53l49.25-69.84L306.5,213.6l19.63-29.87c0,0-27.24-38.26-38.61-44.3
		C276.13,133.38,284.31,137.65,284.31,137.65z"/>
	<path class="st1" d="M273.98,244.02c-3.22-3.31-5-8.82-5-15.77c0-6.95,1.7-12.46,5-15.77c2.63-2.71,6.27-4.15,10.51-4.15
		c4.24,0,7.89,1.44,10.51,4.15c3.31,3.39,5,8.73,5,15.77c0,6.95-1.7,12.46-5,15.77c-2.63,2.71-6.36,4.15-10.51,4.15
		C280.26,248.17,276.61,246.73,273.98,244.02z M277.46,228.25c0,8.39,2.37,12.72,7.04,12.72c4.66,0,7.04-4.32,7.04-12.72
		c0-8.39-2.37-12.71-7.04-12.71C279.83,215.53,277.46,219.86,277.46,228.25z"/>
	<path d="M231.29,374.27l-6.01-15.48c-0.24-0.62-4.87-12.7-7.76-32.15c-7.01,9.66-15.07,17.28-24.09,22.74l-14.99,9.09l7.38-15.89
		c3.18-6.83,6.16-14.43,8.92-22.73c-6.52,5.73-12.82,9.37-18.83,10.87l-14.33,3.58l8.73-11.91c4.88-6.65,9.61-14.64,14.16-23.88
		c-4.94,2.66-9.82,4.74-14.62,6.22l-17.25,5.31l11.59-13.83c15.68-18.7,21.68-30.94,27.54-47.91l-0.4-15.96
		c-0.29-3.89-3.77-58.3,17.38-162.99l7.23-35.77l3.53,38.73l9.31-52.7l9.19,51.21l3.4-37.24l7.23,35.76
		c18.38,90.98,18.12,145.89,17.57,161.02l1.25,16.98c5.44,15.78,11.98,28.95,28.67,48.87l11.59,13.83l-17.25-5.31
		c-4.79-1.48-9.68-3.55-14.62-6.22c4.55,9.24,9.28,17.23,14.16,23.88l8.73,11.91l-14.33-3.58c-6.01-1.5-12.31-5.14-18.83-10.87
		c2.76,8.3,5.74,15.9,8.92,22.73l7.39,15.89l-14.99-9.09c-9.36-5.68-17.7-13.67-24.88-23.85c-2.86,18.02-6.4,31.92-6.58,32.65
		L231.29,374.27z M225.09,292.14l1.35,18.28c0.67,9.08,1.9,17.12,3.23,23.79c1.37-7.33,2.77-15.95,3.78-24.83l1.95-17.2l8.07,15.31
		c3.95,7.49,8.39,14.01,13.27,19.52c-2.85-8.17-5.49-17-7.89-26.44l-6.43-25.33l15.84,20.78c3.62,4.75,7.16,8.86,10.59,12.29
		c-3.53-6.73-6.95-14.14-10.23-22.18l-7.46-18.27l15.65,12.03c2.54,1.95,5.07,3.74,7.57,5.36c-8.55-12.66-13.25-23.37-17.26-35.11
		l-0.22-0.65l-1.39-18.94l0.01-0.3c1.43-37.74-4.87-86.25-10.39-120.23l-3.69,40.43l-12.55-69.98l-12.77,72.27l-3.94-43.18
		c-13.23,80.06-10.21,121.62-10.18,122.08l0.02,0.29l0.45,18.01l-0.31,0.9c-4.26,12.46-8.68,22.81-16.43,34.55
		c2.58-1.66,5.17-3.5,7.79-5.51l15.65-12.03l-7.46,18.27c-3.28,8.04-6.7,15.44-10.24,22.18c3.42-3.43,6.97-7.54,10.59-12.29
		l15.84-20.78l-6.43,25.33c-2.4,9.44-5.03,18.28-7.89,26.44c4.71-5.31,9.01-11.56,12.85-18.72L225.09,292.14z"/>
	<polygon points="393.91,307.52 406.44,296.05 398.44,293.39 388.84,302.19 	"/>
	<polygon class="st1" points="378.76,308.66 392.84,298.72 403.51,287.79 365.38,260.85 335.24,271.25 360.04,289.39 	"/>
	<g>
		<circle class="st2" cx="74.42" cy="160.94" r="28.57"/>
		<path d="M74.42,192.71c-17.52,0-31.77-14.25-31.77-31.77s14.25-31.77,31.77-31.77s31.77,14.25,31.77,31.77
			S91.94,192.71,74.42,192.71z M74.42,135.57c-13.99,0-25.37,11.38-25.37,25.37c0,13.99,11.38,25.37,25.37,25.37
			s25.37-11.38,25.37-25.37C99.8,146.95,88.41,135.57,74.42,135.57z"/>
	</g>
	<g>
		<path d="M93.25,168.63c0.39-1.26,0.61-2.6,0.62-3.99c0.06-6.6-4.49-12.16-10.65-13.62c-0.61,4.32-4.35,7.62-8.83,7.58
			c-4.88-0.04-8.8-4.04-8.75-8.91c0.03-3.18,1.73-5.95,4.27-7.48c1.41-0.89,3.1-1.45,5.01-1.52c10.54-0.36,20.12,9.16,19.85,20.68
			C94.71,163.93,94.17,166.38,93.25,168.63z"/>
		<path d="M58.39,173.3c0.9,0.97,1.95,1.82,3.14,2.53c5.68,3.35,12.78,2.19,17.12-2.41c-3.43-2.69-4.43-7.57-2.15-11.43
			c2.48-4.2,7.89-5.6,12.09-3.12c2.74,1.61,4.29,4.48,4.35,7.44c0.07,1.66-0.29,3.41-1.19,5.1c-4.95,9.31-18,12.84-27.83,6.85
			C61.73,176.91,59.88,175.22,58.39,173.3z"/>
		<path d="M71.77,140.78c-1.29,0.29-2.55,0.77-3.76,1.46c-5.74,3.25-8.28,9.97-6.47,16.04c4.05-1.63,8.77-0.05,10.98,3.85
			c2.4,4.25,0.9,9.64-3.34,12.04c-2.77,1.56-6.02,1.47-8.61,0.05c-1.47-0.77-2.81-1.96-3.82-3.58c-5.59-8.95-2.13-22.01,7.99-27.53
			C66.98,141.86,69.37,141.1,71.77,140.78z"/>
	</g>
	<g>
		<circle class="st2" cx="371.46" cy="161.06" r="28.57"/>
		<path d="M371.46,192.83c-17.52,0-31.77-14.25-31.77-31.77s14.25-31.77,31.77-31.77s31.77,14.25,31.77,31.77
			S388.98,192.83,371.46,192.83z M371.46,135.69c-13.99,0-25.37,11.38-25.37,25.37c0,13.99,11.38,25.37,25.37,25.37
			s25.37-11.38,25.37-25.37C396.84,147.07,385.45,135.69,371.46,135.69z"/>
	</g>
	<g>
		<path d="M390.29,168.75c0.39-1.26,0.61-2.6,0.62-3.99c0.06-6.6-4.49-12.16-10.65-13.62c-0.61,4.32-4.35,7.62-8.83,7.58
			c-4.88-0.04-8.8-4.04-8.75-8.91c0.03-3.18,1.73-5.95,4.27-7.48c1.41-0.89,3.1-1.45,5.01-1.52c10.54-0.36,20.12,9.16,19.85,20.68
			C391.75,164.06,391.21,166.5,390.29,168.75z"/>
		<path d="M355.43,173.42c0.9,0.97,1.95,1.82,3.14,2.53c5.68,3.35,12.78,2.19,17.12-2.41c-3.43-2.69-4.43-7.57-2.15-11.43
			c2.48-4.2,7.89-5.6,12.09-3.12c2.74,1.61,4.29,4.48,4.35,7.44c0.07,1.66-0.29,3.41-1.19,5.1c-4.95,9.31-18,12.84-27.83,6.85
			C358.77,177.03,356.92,175.34,355.43,173.42z"/>
		<path d="M368.81,140.9c-1.29,0.29-2.55,0.77-3.76,1.46c-5.74,3.25-8.28,9.97-6.47,16.04c4.05-1.63,8.77-0.05,10.98,3.85
			c2.4,4.25,0.9,9.64-3.34,12.04c-2.77,1.56-6.02,1.47-8.61,0.05c-1.47-0.77-2.81-1.96-3.82-3.58c-5.59-8.95-2.13-22.01,7.99-27.53
			C364.02,141.98,366.41,141.22,368.81,140.9z"/>
	</g>
	<g>
		<circle class="st2" cx="136.61" cy="79.31" r="28.57"/>
		<path d="M136.61,111.08c-17.52,0-31.77-14.25-31.77-31.77s14.25-31.77,31.77-31.77s31.77,14.25,31.77,31.77
			S154.13,111.08,136.61,111.08z M136.61,53.93c-13.99,0-25.37,11.38-25.37,25.37s11.38,25.37,25.37,25.37s25.37-11.38,25.37-25.37
			S150.6,53.93,136.61,53.93z"/>
	</g>
	<g>
		<path d="M155.43,86.99c0.39-1.26,0.61-2.6,0.62-3.99c0.06-6.6-4.49-12.16-10.65-13.62c-0.61,4.32-4.35,7.62-8.83,7.58
			c-4.88-0.04-8.8-4.04-8.75-8.91c0.03-3.18,1.73-5.95,4.27-7.48c1.41-0.89,3.1-1.45,5.01-1.52c10.54-0.36,20.12,9.16,19.85,20.68
			C156.89,82.3,156.35,84.75,155.43,86.99z"/>
		<path d="M120.57,91.67c0.9,0.97,1.95,1.82,3.14,2.53c5.68,3.35,12.78,2.19,17.12-2.41c-3.43-2.69-4.43-7.57-2.15-11.43
			c2.48-4.2,7.89-5.6,12.09-3.12c2.74,1.61,4.29,4.48,4.35,7.44c0.07,1.66-0.29,3.41-1.19,5.1c-4.95,9.31-18,12.84-27.83,6.85
			C123.91,95.28,122.06,93.59,120.57,91.67z"/>
		<path d="M133.95,59.14c-1.29,0.29-2.55,0.77-3.76,1.46c-5.74,3.25-8.28,9.97-6.47,16.04c4.05-1.63,8.77-0.05,10.98,3.85
			c2.4,4.25,0.9,9.64-3.34,12.04c-2.77,1.56-6.02,1.47-8.61,0.05c-1.47-0.77-2.81-1.96-3.82-3.58c-5.59-8.95-2.13-22.01,7.99-27.53
			C129.16,60.23,131.55,59.47,133.95,59.14z"/>
	</g>
	<circle class="st2" cx="319.56" cy="83.19" r="28.57"/>
	<path d="M319.56,114.97c-17.52,0-31.77-14.25-31.77-31.77s14.25-31.77,31.77-31.77c17.52,0,31.77,14.25,31.77,31.77
		S337.08,114.97,319.56,114.97z M319.56,57.82c-13.99,0-25.37,11.38-25.37,25.37s11.38,25.37,25.37,25.37
		c13.99,0,25.37-11.38,25.37-25.37S333.55,57.82,319.56,57.82z"/>
	<g>
		<path d="M338.39,90.88c0.39-1.26,0.61-2.6,0.62-3.99c0.06-6.6-4.49-12.16-10.65-13.62c-0.61,4.32-4.35,7.62-8.83,7.58
			c-4.88-0.04-8.8-4.04-8.75-8.91c0.03-3.18,1.73-5.95,4.27-7.48c1.41-0.89,3.1-1.45,5.01-1.52c10.54-0.36,20.12,9.16,19.85,20.68
			C339.84,86.19,339.31,88.64,338.39,90.88z"/>
		<path d="M303.53,95.56c0.9,0.97,1.95,1.82,3.14,2.53c5.68,3.35,12.78,2.19,17.12-2.41c-3.43-2.69-4.43-7.57-2.15-11.43
			c2.48-4.2,7.89-5.6,12.09-3.12c2.74,1.61,4.29,4.48,4.35,7.44c0.07,1.66-0.29,3.41-1.19,5.1c-4.95,9.31-18,12.84-27.83,6.85
			C306.86,99.16,305.01,97.48,303.53,95.56z"/>
		<path d="M316.91,63.03c-1.29,0.29-2.55,0.77-3.76,1.46c-5.74,3.25-8.28,9.97-6.47,16.04c4.05-1.63,8.77-0.05,10.98,3.85
			c2.4,4.25,0.9,9.64-3.34,12.04c-2.77,1.56-6.02,1.47-8.61,0.05c-1.47-0.77-2.81-1.96-3.82-3.58c-5.59-8.95-2.13-22.01,7.99-27.53
			C312.12,64.12,314.5,63.35,316.91,63.03z"/>
	</g>
	<path class="st3" d="M260.84,230.45c0.52-13.79,0.93-69.02-17.46-160.06l-3.67,40.23l-10.87-60.6l-11.04,62.49l-3.84-42.12
		c-21.6,106.9-17.28,161.66-17.28,161.66l0.42,17.06c-5.83,17.07-11.85,30.27-28.81,50.51c10.84-3.33,20.79-9.62,28.46-15.51
		c-5.4,13.22-12.87,28.8-22.14,41.43c11.3-2.83,22.67-14.48,31.67-26.29c-3.56,14.03-8.67,30.6-15.63,45.58
		c13.96-8.47,23.76-21.54,30.46-34.02c2.06,27.86,9.12,46.05,9.12,46.05s5.71-22.25,8.5-46.89c6.71,12.73,16.63,26.2,30.9,34.86
		c-6.96-14.98-12.06-31.55-15.63-45.58c9,11.81,20.37,23.47,31.67,26.29c-9.27-12.64-16.74-28.21-22.14-41.43
		c7.68,5.9,17.63,12.18,28.46,15.51c-16.96-20.23-24.02-34.14-29.85-51.21L260.84,230.45z"/>
	<path d="M228.91,280.54c-21.55,0-39.09-17.53-39.09-39.09s17.53-39.09,39.09-39.09S268,219.9,268,241.45
		S250.47,280.54,228.91,280.54z M228.91,213.03c-15.67,0-28.42,12.75-28.42,28.42s12.75,28.42,28.42,28.42s28.42-12.75,28.42-28.42
		S244.58,213.03,228.91,213.03z"/>
	<circle class="st2" cx="228.91" cy="241.45" r="33.75"/>
	<path d="M252.86,246.88h-47.9c-3,0-5.43-2.43-5.43-5.43c0-3,2.43-5.43,5.43-5.43h47.9c3,0,5.43,2.43,5.43,5.43
		C258.29,244.45,255.86,246.88,252.86,246.88z"/>
	<g>
		<path class="st3" d="M405.91,311.52c0,0,25.33,16.93,10.59,33.02c-12.06,13.17-24.28-15.54-47.6-5.83
			c-5.37,2.24-9.44,5.25-12.54,8.56c-10.85-7.82-24.16-12.45-38.56-12.45c-13.78,0-26.58,4.23-37.16,11.45
			c-12.86-14.59-31.67-23.8-52.64-23.8c-10.9,0-21.22,2.49-30.43,6.92c-15.57-21.43-40.83-35.37-69.36-35.37
			c-47.32,0-85.68,38.36-85.68,85.68s38.36,85.68,85.68,85.68c20.59,0,39.47-7.26,54.25-19.36c12.26,10.47,28.15,16.8,45.54,16.8
			c16.38,0,31.44-5.63,43.38-15.04c9.05,8.96,46.69,26.91,75.19,19.14c18.84-5.14,42.74-25.26,40.8-49.54
			c-1.94-24.28,9.73-31.37,23.31-32.05c14.97-0.75,30.44-9.29,32.57-33.82C445.7,323.31,405.91,311.52,405.91,311.52z"/>
		<path d="M268.23,404.95c-1.49,0-2.97-0.15-4.4-0.45c-7.94-1.64-13.84-5.91-16.6-12.01c-2.13-4.71-1.99-10.01,0.38-14.17
			c2.75-4.84,6.34-7.63,10.66-8.31c7.37-1.15,13.77,4.64,14.04,4.88c1.3,1.2,1.39,3.22,0.19,4.52c-1.2,1.3-3.22,1.39-4.52,0.19
			c-1.21-1.1-5.16-3.83-8.74-3.27c-2.29,0.37-4.33,2.1-6.06,5.15c-1.36,2.39-1.4,5.52-0.11,8.37c1.1,2.42,4.12,6.74,12.06,8.38
			c7.07,1.46,16.83-1.89,21.05-16.14c6.17-20.79-12.53-38.6-12.72-38.78c-1.29-1.21-1.36-3.23-0.15-4.52
			c1.21-1.29,3.23-1.36,4.52-0.15c0.89,0.83,21.76,20.74,14.48,45.27C287.91,398.8,277.7,404.95,268.23,404.95z"/>
		<path d="M181.11,451.03c-0.76,0-1.52-0.27-2.13-0.81c-1.32-1.17-1.44-3.19-0.27-4.51l0,0c0.1-0.11,9.56-10.94,9.56-22.48
			c0-7.81-2.07-18.26-11.95-23.75c-5.02-2.79-15.16-3.96-23.44-1.09c-3.14,1.09-7.25,3.24-8.97,7.31
			c-3.45,8.2-0.29,18.79,4.84,22.78c2.09,1.63,5.96,1.95,9.41,0.79c3.54-1.19,6.06-3.69,6.91-6.86c0.48-1.8,0.41-3.16-0.22-4.04
			c-0.88-1.24-2.93-1.63-3.38-1.66c-1.76-0.12-3.1-1.65-2.98-3.41c0.12-1.76,1.64-3.1,3.41-2.98c0.54,0.04,5.4,0.47,8.15,4.32
			c1.23,1.72,2.44,4.75,1.2,9.41c-1.41,5.28-5.44,9.39-11.05,11.28c-5.53,1.86-11.57,1.15-15.38-1.81
			c-7.12-5.54-11.56-19.04-6.81-30.32c2.08-4.95,6.5-8.71,12.78-10.88c9.09-3.14,21.4-2.47,28.64,1.55
			c9.83,5.46,15.24,15.88,15.24,29.35c0,14.01-10.71,26.22-11.17,26.73C182.87,450.67,181.99,451.03,181.11,451.03z"/>
		<path class="st3" d="M268.21,450.1c0,0,10.28-7.72,14.25-13.28c4.86-6.8,8.09-14.89,8.09-14.89"/>
		<path d="M268.21,453.3c-0.97,0-1.93-0.44-2.56-1.28c-1.06-1.41-0.78-3.42,0.64-4.48c0.1-0.08,9.93-7.49,13.56-12.58
			c4.58-6.41,7.7-14.15,7.73-14.22c0.66-1.64,2.52-2.44,4.16-1.78c1.64,0.66,2.44,2.52,1.78,4.16c-0.14,0.34-3.44,8.53-8.46,15.57
			c-4.21,5.89-14.49,13.65-14.93,13.97C269.55,453.09,268.88,453.3,268.21,453.3z"/>
		<path d="M360.15,430.81c-5.24,0-10.17-2.24-13.46-6.18c-7.06-8.47-2.98-22.48,0.77-28.11c3.86-5.8,14.9-9.55,28.51-5.5
			c15.52,4.61,14.63,29.35,14.59,30.4c-0.08,1.76-1.55,3.12-3.33,3.06c-1.76-0.08-3.13-1.57-3.06-3.33l0,0
			c0.24-5.78-1.1-21.35-10.02-24c-11.05-3.29-19.28-0.2-21.36,2.92c-1.28,1.93-2.82,5.73-3.34,9.9c-0.4,3.15-0.35,7.55,2.17,10.56
			c3.35,4.03,7.99,4.01,9.82,3.82c2.88-0.3,5.39-1.61,6.26-3.26c1.32-2.51,0.23-6.46-1.58-8.19c-0.28-0.26-0.79-0.69-1.09-0.51
			c-1.53,0.9-3.48,0.39-4.38-1.14c-0.9-1.52-0.39-3.49,1.14-4.38c2.78-1.63,6.13-1.1,8.75,1.4c3.57,3.4,5.66,10.41,2.83,15.8
			c-1.88,3.56-6.19,6.11-11.25,6.64C361.45,430.78,360.8,430.81,360.15,430.81z"/>
		<path d="M331.17,472.06c-24.37,0-49.89-12.01-59.95-20.14c-12.62,9.24-27.51,14.1-43.23,14.1c-16.56,0-32.63-5.62-45.57-15.89
			c-15.47,11.91-34.62,18.45-54.21,18.45c-49.01,0-88.88-39.87-88.88-88.88s39.87-88.88,88.88-88.88
			c27.48,0,53.58,12.88,70.37,34.58c9.28-4.07,19.16-6.13,29.42-6.13c20.11,0,39.33,8.29,53.17,22.83
			c10.99-6.87,23.59-10.49,36.64-10.49c13.7,0,26.85,3.97,38.2,11.51c3.33-3.05,7.24-5.53,11.67-7.38c13.53-5.64,24,0.43,31.64,4.85
			c7.96,4.61,11.08,5.86,14.83,1.77c2.91-3.18,4.11-6.46,3.68-10.04c-0.97-8.04-10.21-15.84-13.69-18.17l-17.54-11.73l20.23,6
			c0.43,0.13,10.53,3.16,20.46,9.83c13.64,9.16,20.26,20.75,19.15,33.51c-2.75,31.68-25.81,36.25-35.6,36.74
			c-6.87,0.35-12.03,2.44-15.35,6.22c-4.09,4.66-5.75,12.19-4.94,22.38c1.21,15.14-6.65,27.06-13.45,34.38
			c-8.1,8.72-19.2,15.64-29.69,18.5C342.18,471.45,336.71,472.06,331.17,472.06z M271.62,443.53l2.01,1.99
			c6.46,6.39,33.16,20.11,57.83,20.11c4.89,0,9.7-0.54,14.26-1.78c26.91-7.34,39.62-31.54,38.45-46.2
			c-0.96-11.98,1.23-21.11,6.51-27.12c4.5-5.13,11.18-7.95,19.84-8.39c10.07-0.51,27.31-5.2,29.54-30.9
			c1.23-14.2-9.84-23.97-19.86-29.83c1.98,3.04,3.53,6.48,3.98,10.17c0.66,5.46-1.13,10.55-5.31,15.13
			c-7.55,8.25-15.63,3.58-22.76-0.55c-7.55-4.37-15.36-8.9-25.97-4.48c-4.5,1.87-8.34,4.5-11.44,7.8l-1.92,2.05l-2.28-1.64
			c-10.75-7.75-23.43-11.84-36.69-11.84c-12.69,0-24.91,3.77-35.36,10.9l-2.33,1.59l-1.87-2.12
			c-12.73-14.44-31.04-22.71-50.24-22.71c-10.18,0-19.95,2.22-29.04,6.6l-2.41,1.16l-1.57-2.16
			c-15.49-21.32-40.45-34.05-66.77-34.05c-45.48,0-82.48,37-82.48,82.48s37,82.48,82.48,82.48c19,0,37.55-6.62,52.22-18.64l2.07-1.7
			l2.04,1.74c12.11,10.34,27.54,16.04,43.46,16.04c15.17,0,29.49-4.96,41.4-14.35L271.62,443.53z"/>
	</g>
</g>
</svg>
