<?xml version="1.0" encoding="utf-8"?>
<!-- Generator: Adobe Illustrator 23.0.4, SVG Export Plug-In . SVG Version: 6.00 Build 0)  -->
<svg version="1.1" id="artwork" xmlns="http://www.w3.org/2000/svg" xmlns:xlink="http://www.w3.org/1999/xlink" x="0px" y="0px"
	 viewBox="0 0 377 174" style="enable-background:new 0 0 377 174;" xml:space="preserve">
<style type="text/css">
	.st0{fill:#FFFFFF;}
	.st1{fill:#D0CEBF;}
</style>
<g>
	<g>
		<path class="st0" d="M335.36,23.27c0,0,22.83,15.26,9.55,29.77c-10.87,11.87-21.89-14.01-42.9-5.25
			c-4.84,2.02-8.51,4.73-11.3,7.72c-9.78-7.05-21.78-11.22-34.76-11.22c-12.42,0-23.96,3.81-33.5,10.32
			c-11.59-13.15-28.55-21.45-47.45-21.45c-9.83,0-19.13,2.24-27.43,6.24C133.52,20.07,110.75,7.5,85.04,7.5
			C42.39,7.5,7.81,42.08,7.81,84.74s34.58,77.23,77.23,77.23c18.56,0,35.58-6.55,48.9-17.45c11.05,9.44,25.38,15.15,41.05,15.15
			c14.77,0,28.34-5.07,39.1-13.56c8.16,8.07,42.09,24.26,67.77,17.25c16.98-4.63,38.53-22.76,36.77-44.65s8.77-28.28,21.01-28.89
			c13.49-0.68,27.44-8.37,29.36-30.49C371.23,33.9,335.36,23.27,335.36,23.27z"/>
		<path d="M268.13,169.88c-21.59,0-44.16-10.19-54.21-17.66c-11.45,8.03-24.83,12.25-38.93,12.25c-14.86,0-29.3-4.88-41.09-13.82
			c-14.07,10.43-31.26,16.13-48.85,16.13c-45.24,0-82.04-36.8-82.04-82.04S39.81,2.7,85.04,2.7c24.86,0,48.51,11.43,64.03,30.75
			c8.21-3.39,16.91-5.11,25.92-5.11c18.14,0,35.49,7.27,48.24,20.07c9.89-5.86,21.12-8.94,32.72-8.94c12.24,0,24,3.41,34.26,9.89
			c2.91-2.45,6.25-4.47,9.96-6.02c13.07-5.45,22.99,0.29,30.22,4.48c7.63,4.42,8.82,4.33,10.98,1.96c2.22-2.43,3.15-4.89,2.83-7.52
			c-0.78-6.5-8.77-13.18-11.5-15.01L306.34,9.65l30.39,9.01c0.4,0.12,9.78,2.94,18.97,9.11c12.91,8.67,19.17,19.72,18.11,31.97
			c-1.81,20.86-14.49,33.89-33.91,34.87c-5.73,0.29-9.81,1.91-12.49,4.96c-3.33,3.8-4.67,10.11-3.98,18.75
			c2.07,25.83-22.83,44.91-40.3,49.68C278.31,169.31,273.24,169.88,268.13,169.88z M214.45,139.7l3.02,2.99
			c6.77,6.7,38.99,22.62,63.13,16.03c8.13-2.22,16.79-7.63,23.15-14.49c5.08-5.47,10.96-14.28,10.09-25.14
			c-0.91-11.34,1.22-20.04,6.34-25.86c4.42-5.03,10.89-7.8,19.23-8.22c8.46-0.43,22.92-4.38,24.81-26.1
			c0.8-9.22-4.71-16.26-11.24-21.28c0.35,1.13,0.6,2.3,0.75,3.49c0.66,5.43-1.17,10.67-5.28,15.16c-7.86,8.58-16.55,3.54-22.89-0.13
			c-6.7-3.88-13.03-7.54-21.71-3.93c-3.8,1.58-7.04,3.79-9.65,6.57l-2.89,3.08l-3.43-2.47c-9.36-6.75-20.4-10.31-31.95-10.31
			c-11.05,0-21.69,3.28-30.79,9.49l-3.51,2.39l-2.81-3.18c-11.11-12.6-27.09-19.82-43.85-19.82c-8.88,0-17.41,1.94-25.34,5.76
			l-3.62,1.74l-2.36-3.25c-13.61-18.72-35.52-29.9-58.63-29.9c-39.93,0-72.42,32.49-72.42,72.42s32.49,72.42,72.42,72.42
			c16.68,0,32.97-5.81,45.85-16.37l3.11-2.55l3.06,2.61c10.57,9.02,24.03,13.99,37.92,13.99c13.24,0,25.73-4.33,36.13-12.52
			L214.45,139.7z"/>
	</g>
	<path d="M211.29,109.41c-1.49,0-2.96-0.15-4.39-0.45c-7.67-1.59-13.62-5.93-16.32-11.91c-2.17-4.8-2.02-10.23,0.42-14.52
		c3.47-6.1,7.89-7.96,10.98-8.44c7.42-1.16,13.57,4.26,14.25,4.88c1.95,1.8,2.08,4.84,0.29,6.79c-1.8,1.96-4.84,2.08-6.79,0.29
		c-0.84-0.75-3.85-2.86-6.28-2.46c-1.45,0.24-2.83,1.48-4.09,3.69c-0.92,1.62-0.93,3.79-0.02,5.8c0.84,1.85,3.19,5.15,9.51,6.46
		c5.58,1.16,13.31-1.61,16.74-13.21c5.19-17.5-10.78-32.86-10.94-33.01c-1.93-1.82-2.02-4.86-0.2-6.79
		c1.82-1.93,4.85-2.03,6.78-0.22c0.84,0.79,20.47,19.52,13.58,42.76C230.55,103.47,220.57,109.41,211.29,109.41z"/>
	<path d="M132.73,150.94c-1.14,0-2.28-0.4-3.19-1.21c-1.98-1.76-2.16-4.79-0.41-6.78l0,0c0.08-0.09,8.13-9.34,8.13-19
		c0-6.52-1.7-15.24-9.79-19.73c-4.06-2.26-12.7-3.22-19.57-0.85c-2.46,0.85-5.67,2.5-6.94,5.52c-2.74,6.51-0.22,15.17,3.77,18.27
		c1.19,0.92,3.86,1.36,6.68,0.41c1.51-0.51,4.17-1.82,4.98-4.86c0.33-1.25,0.21-1.87,0.1-2.02c-0.28-0.39-1.36-0.68-1.62-0.7
		c-2.65-0.18-4.65-2.47-4.47-5.12c0.18-2.65,2.47-4.65,5.12-4.47c0.58,0.04,5.79,0.51,8.78,4.69c1.35,1.89,2.69,5.17,1.37,10.1
		c-1.44,5.39-5.52,9.58-11.21,11.49c-5.58,1.88-11.73,1.12-15.65-1.93c-6.98-5.43-11.35-18.62-6.73-29.59
		c2.1-4.98,6.47-8.74,12.66-10.87c8.8-3.04,20.31-2.39,27.38,1.53c9.5,5.28,14.73,15.27,14.73,28.14
		c0,13.35-10.12,24.89-10.55,25.38C135.37,150.4,134.05,150.94,132.73,150.94z"/>
	<g>
		<path class="st1" d="M211.24,148.18c0,0,9.26-6.96,12.84-11.97c4.38-6.13,7.3-13.43,7.3-13.43"/>
		<path d="M211.24,152.99c-1.46,0-2.9-0.66-3.85-1.92c-1.59-2.12-1.17-5.14,0.96-6.73c2.41-1.81,9.24-7.31,11.82-10.92
			c4-5.59,6.72-12.35,6.74-12.42c0.99-2.47,3.78-3.66,6.25-2.68c2.47,0.99,3.66,3.78,2.68,6.25c-0.13,0.32-3.19,7.91-7.85,14.43
			c-3.9,5.46-12.86,12.26-13.87,13.02C213.26,152.67,212.25,152.99,211.24,152.99z"/>
	</g>
	<path d="M294.12,132.72c-5.29,0-10.27-2.27-13.61-6.27c-7.01-8.41-3.09-22.15,0.57-27.63c5.12-7.68,17.88-8.69,27.84-5.74
		c4.65,1.38,10.75,5.48,13.36,17.15c1.4,6.23,1.17,11.94,1.16,12.18c-0.11,2.65-2.35,4.7-5.01,4.6c-2.65-0.11-4.71-2.35-4.6-5
		c0.18-4.47-0.85-17.68-7.66-19.71c-9.36-2.78-15.76-0.17-17.1,1.85c-2.29,3.44-4.48,12.18-1.18,16.14c2.43,2.92,5.83,2.9,7.17,2.76
		c2.29-0.24,3.8-1.27,4.14-1.92c0.79-1.51-0.02-3.85-0.79-4.83c-2.07,0.62-4.37-0.22-5.52-2.17c-1.35-2.29-0.58-5.23,1.71-6.58
		c3.28-1.93,7.18-1.35,10.19,1.52c3.8,3.63,5.94,10.8,2.92,16.53c-1.99,3.77-6.45,6.46-11.64,7
		C295.42,132.68,294.77,132.72,294.12,132.72z"/>
</g>
</svg>
