<?xml version="1.0" encoding="utf-8"?>
<!-- Generator: Adobe Illustrator 23.0.4, SVG Export Plug-In . SVG Version: 6.00 Build 0)  -->
<svg version="1.1" id="artwork" xmlns="http://www.w3.org/2000/svg" xmlns:xlink="http://www.w3.org/1999/xlink" x="0px" y="0px"
	 viewBox="0 0 660 660" style="enable-background:new 0 0 660 660;" xml:space="preserve">
<style type="text/css">
	.st0{fill:#E1C483;}
</style>
<g>
	<path d="M330.43,601.27c-36.27,0-71.45-7.1-104.57-21.11c-31.99-13.53-60.72-32.9-85.4-57.58c-24.68-24.68-44.05-53.41-57.58-85.4
		c-14.01-33.11-21.11-68.29-21.11-104.57s7.1-71.45,21.11-104.57c13.53-31.99,32.9-60.72,57.58-85.4
		c24.68-24.68,53.41-44.05,85.4-57.58c33.11-14.01,68.29-21.11,104.57-21.11s71.45,7.1,104.57,21.11
		c31.99,13.53,60.72,32.9,85.4,57.58c24.68,24.68,44.05,53.41,57.58,85.4c14.01,33.11,21.11,68.29,21.11,104.57
		s-7.1,71.45-21.11,104.57c-13.53,31.99-32.9,60.72-57.58,85.4c-24.68,24.68-53.41,44.05-85.4,57.58
		C401.88,594.17,366.7,601.27,330.43,601.27 M330.43,614.1c155.46,0,281.48-126.02,281.48-281.48S485.88,51.14,330.43,51.14
		S48.94,177.16,48.94,332.62S174.97,614.1,330.43,614.1L330.43,614.1z"/>
	<g>
		<g>
			<circle class="st0" cx="329.78" cy="604.41" r="46.2"/>
			<path d="M329.78,553.94c27.83,0,50.47,22.64,50.47,50.47c0,27.83-22.64,50.47-50.47,50.47c-27.83,0-50.47-22.64-50.47-50.47
				C279.31,576.58,301.95,553.94,329.78,553.94z M329.78,646.33c23.11,0,41.92-18.8,41.92-41.92c0-23.11-18.8-41.92-41.92-41.92
				c-23.11,0-41.92,18.8-41.92,41.92C287.86,627.52,306.67,646.33,329.78,646.33z"/>
		</g>
		<g>
			<path d="M299.34,591.98c-0.63,2.04-0.98,4.2-1,6.45c-0.1,10.67,7.27,19.66,17.22,22.02c0.99-6.98,7.03-12.32,14.27-12.25
				c7.89,0.07,14.22,6.52,14.15,14.41c-0.05,5.14-2.8,9.62-6.9,12.1c-2.27,1.43-5.01,2.35-8.1,2.46
				c-17.04,0.59-32.53-14.81-32.09-33.44C296.99,599.57,297.85,595.61,299.34,591.98z"/>
			<path d="M355.7,584.42c-1.45-1.57-3.15-2.95-5.08-4.09c-9.19-5.42-20.66-3.54-27.69,3.9c5.55,4.35,7.16,12.24,3.48,18.48
				c-4.01,6.79-12.76,9.05-19.55,5.05c-4.43-2.61-6.93-7.24-7.03-12.02c-0.11-2.69,0.47-5.52,1.93-8.25
				c8.01-15.05,29.1-20.77,45-11.07C350.31,578.59,353.3,581.32,355.7,584.42z"/>
			<path d="M334.07,637.01c2.08-0.47,4.13-1.25,6.08-2.36c9.29-5.25,13.39-16.12,10.46-25.93c-6.54,2.63-14.18,0.07-17.74-6.23
				c-3.88-6.87-1.46-15.58,5.41-19.46c4.47-2.53,9.73-2.38,13.93-0.07c2.38,1.25,4.54,3.17,6.18,5.79
				c9.03,14.46,3.44,35.58-12.91,44.51C341.81,635.25,337.95,636.48,334.07,637.01z"/>
		</g>
	</g>
	<g>
		<g>
			<circle class="st0" cx="135.16" cy="521.24" r="46.2"/>
			<path d="M135.16,470.77c27.83,0,50.47,22.64,50.47,50.47c0,27.83-22.64,50.47-50.47,50.47c-27.83,0-50.47-22.64-50.47-50.47
				C84.68,493.41,107.33,470.77,135.16,470.77z M135.16,563.16c23.11,0,41.92-18.8,41.92-41.92c0-23.11-18.8-41.92-41.92-41.92
				c-23.11,0-41.92,18.8-41.92,41.92C93.24,544.35,112.04,563.16,135.16,563.16z"/>
		</g>
		<g>
			<path d="M104.72,508.81c-0.63,2.04-0.98,4.2-1,6.45c-0.1,10.67,7.27,19.66,17.22,22.02c0.99-6.98,7.03-12.32,14.27-12.25
				c7.89,0.07,14.22,6.52,14.15,14.41c-0.05,5.14-2.8,9.62-6.9,12.1c-2.27,1.43-5.01,2.35-8.1,2.46
				c-17.04,0.59-32.53-14.81-32.09-33.44C102.36,516.4,103.23,512.44,104.72,508.81z"/>
			<path d="M161.08,501.25c-1.45-1.57-3.15-2.95-5.08-4.09c-9.19-5.42-20.66-3.54-27.69,3.9c5.55,4.35,7.16,12.24,3.48,18.48
				c-4.01,6.79-12.76,9.05-19.55,5.05c-4.43-2.61-6.93-7.24-7.03-12.02c-0.11-2.69,0.47-5.52,1.93-8.25
				c8.01-15.05,29.1-20.77,45-11.07C155.68,495.42,158.68,498.15,161.08,501.25z"/>
			<path d="M139.44,553.84c2.08-0.47,4.13-1.25,6.08-2.36c9.29-5.25,13.39-16.12,10.46-25.93c-6.54,2.63-14.18,0.07-17.74-6.23
				c-3.88-6.87-1.46-15.58,5.41-19.46c4.47-2.53,9.73-2.38,13.93-0.07c2.38,1.25,4.54,3.17,6.18,5.79
				c9.03,14.46,3.44,35.58-12.91,44.51C147.19,552.08,143.33,553.31,139.44,553.84z"/>
		</g>
	</g>
	<g>
		<g>
			<circle class="st0" cx="54.13" cy="330.45" r="46.2"/>
			<path d="M54.13,279.98c27.83,0,50.47,22.64,50.47,50.47c0,27.83-22.64,50.47-50.47,50.47c-27.83,0-50.47-22.64-50.47-50.47
				C3.65,302.62,26.3,279.98,54.13,279.98z M54.13,372.37c23.11,0,41.92-18.8,41.92-41.92c0-23.11-18.8-41.92-41.92-41.92
				c-23.11,0-41.92,18.8-41.92,41.92C12.21,353.57,31.01,372.37,54.13,372.37z"/>
		</g>
		<g>
			<path d="M23.69,318.02c-0.63,2.04-0.98,4.2-1,6.45c-0.1,10.67,7.27,19.66,17.22,22.02c0.99-6.98,7.03-12.32,14.27-12.25
				c7.89,0.07,14.22,6.52,14.15,14.41c-0.05,5.14-2.8,9.62-6.9,12.1c-2.27,1.43-5.01,2.35-8.1,2.46
				c-17.04,0.59-32.53-14.81-32.09-33.44C21.33,325.61,22.2,321.65,23.69,318.02z"/>
			<path d="M80.05,310.47c-1.45-1.57-3.15-2.95-5.08-4.09c-9.19-5.42-20.66-3.54-27.69,3.9c5.55,4.35,7.16,12.24,3.48,18.48
				c-4.01,6.79-12.76,9.05-19.55,5.05c-4.43-2.61-6.93-7.24-7.03-12.02c-0.11-2.69,0.47-5.52,1.93-8.25
				c8.01-15.05,29.1-20.77,45-11.07C74.65,304.63,77.65,307.36,80.05,310.47z"/>
			<path d="M58.41,363.06c2.08-0.47,4.13-1.25,6.08-2.36c9.29-5.25,13.39-16.12,10.46-25.93c-6.54,2.63-14.18,0.07-17.74-6.23
				c-3.88-6.87-1.46-15.58,5.41-19.46c4.47-2.53,9.73-2.38,13.93-0.07c2.38,1.25,4.54,3.17,6.18,5.79
				c9.03,14.46,3.44,35.58-12.91,44.51C66.16,361.3,62.3,362.53,58.41,363.06z"/>
		</g>
	</g>
	<g>
		<g>
			<circle class="st0" cx="136.62" cy="135.66" r="46.2"/>
			<path d="M136.62,85.19c27.83,0,50.47,22.64,50.47,50.47c0,27.83-22.64,50.47-50.47,50.47c-27.83,0-50.47-22.64-50.47-50.47
				C86.15,107.83,108.79,85.19,136.62,85.19z M136.62,177.58c23.11,0,41.92-18.8,41.92-41.92c0-23.11-18.8-41.92-41.92-41.92
				c-23.11,0-41.92,18.8-41.92,41.92C94.7,158.77,113.5,177.58,136.62,177.58z"/>
		</g>
		<g>
			<path d="M106.18,123.23c-0.63,2.04-0.98,4.2-1,6.45c-0.1,10.67,7.27,19.66,17.22,22.02c0.99-6.98,7.03-12.32,14.27-12.25
				c7.89,0.07,14.22,6.52,14.15,14.41c-0.05,5.14-2.8,9.62-6.9,12.1c-2.27,1.43-5.01,2.35-8.1,2.46
				c-17.04,0.59-32.53-14.81-32.09-33.44C103.83,130.82,104.69,126.86,106.18,123.23z"/>
			<path d="M162.54,115.67c-1.45-1.57-3.15-2.95-5.08-4.09c-9.19-5.42-20.66-3.54-27.69,3.9c5.55,4.35,7.16,12.24,3.48,18.48
				c-4.01,6.79-12.76,9.05-19.55,5.05c-4.43-2.61-6.93-7.24-7.03-12.02c-0.11-2.69,0.47-5.52,1.93-8.25
				c8.01-15.05,29.1-20.77,45-11.07C157.14,109.84,160.14,112.57,162.54,115.67z"/>
			<path d="M140.9,168.26c2.08-0.47,4.13-1.25,6.08-2.36c9.29-5.25,13.39-16.12,10.46-25.93c-6.54,2.63-14.18,0.07-17.74-6.23
				c-3.88-6.87-1.46-15.58,5.41-19.46c4.47-2.53,9.73-2.38,13.93-0.07c2.38,1.25,4.54,3.17,6.18,5.79
				c9.03,14.46,3.44,35.58-12.91,44.51C148.65,166.5,144.79,167.74,140.9,168.26z"/>
		</g>
	</g>
	<g>
		<g>
			<circle class="st0" cx="329.78" cy="54.94" r="46.2"/>
			<path d="M329.78,4.46c27.83,0,50.47,22.64,50.47,50.47c0,27.83-22.64,50.47-50.47,50.47c-27.83,0-50.47-22.64-50.47-50.47
				C279.31,27.11,301.95,4.46,329.78,4.46z M329.78,96.85c23.11,0,41.92-18.8,41.92-41.92c0-23.11-18.8-41.92-41.92-41.92
				c-23.11,0-41.92,18.8-41.92,41.92C287.86,78.05,306.67,96.85,329.78,96.85z"/>
		</g>
		<g>
			<path d="M299.34,42.51c-0.63,2.04-0.98,4.2-1,6.45c-0.1,10.67,7.27,19.66,17.22,22.02c0.99-6.98,7.03-12.32,14.27-12.25
				c7.89,0.07,14.22,6.52,14.15,14.41c-0.05,5.14-2.8,9.62-6.9,12.1c-2.27,1.43-5.01,2.35-8.1,2.46
				c-17.04,0.59-32.53-14.81-32.09-33.44C296.99,50.1,297.85,46.14,299.34,42.51z"/>
			<path d="M355.7,34.95c-1.45-1.57-3.15-2.95-5.08-4.09c-9.19-5.42-20.66-3.54-27.69,3.9c5.55,4.35,7.16,12.24,3.48,18.48
				c-4.01,6.79-12.76,9.05-19.55,5.05c-4.43-2.61-6.93-7.24-7.03-12.02c-0.11-2.69,0.47-5.52,1.93-8.25
				c8.01-15.05,29.1-20.77,45-11.07C350.31,29.12,353.3,31.84,355.7,34.95z"/>
			<path d="M334.07,87.54c2.08-0.47,4.13-1.25,6.08-2.36c9.29-5.25,13.39-16.12,10.46-25.93c-6.54,2.63-14.18,0.07-17.74-6.23
				c-3.88-6.87-1.46-15.58,5.41-19.46c4.47-2.53,9.73-2.38,13.93-0.07c2.38,1.25,4.54,3.17,6.18,5.79
				c9.03,14.46,3.44,35.58-12.91,44.51C341.81,85.78,337.95,87.01,334.07,87.54z"/>
		</g>
	</g>
	<g>
		<g>
			<circle class="st0" cx="521.42" cy="134.98" r="46.2"/>
			<path d="M521.42,84.51c27.83,0,50.47,22.64,50.47,50.47c0,27.83-22.64,50.47-50.47,50.47c-27.83,0-50.47-22.64-50.47-50.47
				C470.94,107.15,493.59,84.51,521.42,84.51z M521.42,176.9c23.11,0,41.92-18.8,41.92-41.92c0-23.11-18.8-41.92-41.92-41.92
				c-23.11,0-41.92,18.8-41.92,41.92C479.5,158.09,498.3,176.9,521.42,176.9z"/>
		</g>
		<g>
			<path d="M490.98,122.55c-0.63,2.04-0.98,4.2-1,6.45c-0.1,10.67,7.27,19.66,17.22,22.02c0.99-6.98,7.03-12.32,14.27-12.25
				c7.89,0.07,14.22,6.52,14.15,14.41c-0.05,5.14-2.8,9.62-6.9,12.1c-2.27,1.43-5.01,2.35-8.1,2.46
				c-17.04,0.59-32.53-14.81-32.09-33.44C488.62,130.14,489.49,126.18,490.98,122.55z"/>
			<path d="M547.34,114.99c-1.45-1.57-3.15-2.95-5.08-4.09c-9.19-5.42-20.66-3.54-27.69,3.9c5.55,4.35,7.16,12.24,3.48,18.48
				c-4.01,6.79-12.76,9.05-19.55,5.05c-4.43-2.61-6.93-7.24-7.03-12.02c-0.11-2.69,0.47-5.52,1.93-8.25
				c8.01-15.05,29.1-20.77,45-11.07C541.94,109.16,544.94,111.89,547.34,114.99z"/>
			<path d="M525.7,167.58c2.08-0.47,4.13-1.25,6.08-2.36c9.29-5.25,13.39-16.12,10.46-25.93c-6.54,2.63-14.18,0.07-17.74-6.23
				c-3.88-6.87-1.46-15.58,5.41-19.46c4.47-2.53,9.73-2.38,13.93-0.07c2.38,1.25,4.54,3.17,6.18,5.79
				c9.03,14.46,3.44,35.58-12.91,44.51C533.45,165.82,529.59,167.05,525.7,167.58z"/>
		</g>
	</g>
	<g>
		<g>
			<circle class="st0" cx="605.57" cy="330.45" r="46.2"/>
			<path d="M605.57,279.98c27.83,0,50.47,22.64,50.47,50.47c0,27.83-22.64,50.47-50.47,50.47c-27.83,0-50.47-22.64-50.47-50.47
				C555.1,302.62,577.74,279.98,605.57,279.98z M605.57,372.37c23.11,0,41.92-18.8,41.92-41.92c0-23.11-18.8-41.92-41.92-41.92
				c-23.11,0-41.92,18.8-41.92,41.92C563.65,353.57,582.46,372.37,605.57,372.37z"/>
		</g>
		<g>
			<path d="M575.13,318.02c-0.63,2.04-0.98,4.2-1,6.45c-0.1,10.67,7.27,19.66,17.22,22.02c0.99-6.98,7.03-12.32,14.27-12.25
				c7.89,0.07,14.22,6.52,14.15,14.41c-0.05,5.14-2.8,9.62-6.9,12.1c-2.27,1.43-5.01,2.35-8.1,2.46
				c-17.04,0.59-32.53-14.81-32.09-33.44C572.78,325.61,573.64,321.65,575.13,318.02z"/>
			<path d="M631.49,310.47c-1.45-1.57-3.15-2.95-5.08-4.09c-9.19-5.42-20.66-3.54-27.69,3.9c5.55,4.35,7.16,12.24,3.48,18.48
				c-4.01,6.79-12.76,9.05-19.55,5.05c-4.43-2.61-6.93-7.24-7.03-12.02c-0.11-2.69,0.47-5.52,1.93-8.25
				c8.01-15.05,29.1-20.77,45-11.07C626.1,304.63,629.1,307.36,631.49,310.47z"/>
			<path d="M609.86,363.06c2.08-0.47,4.13-1.25,6.08-2.36c9.29-5.25,13.39-16.12,10.46-25.93c-6.54,2.63-14.18,0.07-17.74-6.23
				c-3.88-6.87-1.46-15.58,5.41-19.46c4.47-2.53,9.73-2.38,13.93-0.07c2.38,1.25,4.54,3.17,6.18,5.79
				c9.03,14.46,3.44,35.58-12.91,44.51C617.61,361.3,613.75,362.53,609.86,363.06z"/>
		</g>
	</g>
	<g>
		<g>
			<circle class="st0" cx="526.21" cy="525.25" r="46.2"/>
			<path d="M526.21,474.78c27.83,0,50.47,22.64,50.47,50.47c0,27.83-22.64,50.47-50.47,50.47c-27.83,0-50.47-22.64-50.47-50.47
				C475.74,497.42,498.38,474.78,526.21,474.78z M526.21,567.17c23.11,0,41.92-18.8,41.92-41.92c0-23.11-18.8-41.92-41.92-41.92
				c-23.11,0-41.92,18.8-41.92,41.92C484.29,548.36,503.09,567.17,526.21,567.17z"/>
		</g>
		<g>
			<path d="M495.77,512.82c-0.63,2.04-0.98,4.2-1,6.45c-0.1,10.67,7.27,19.66,17.22,22.02c0.99-6.98,7.03-12.32,14.27-12.25
				c7.89,0.07,14.22,6.52,14.15,14.41c-0.05,5.14-2.8,9.62-6.9,12.1c-2.27,1.43-5.01,2.35-8.1,2.46
				c-17.04,0.59-32.53-14.81-32.09-33.44C493.42,520.41,494.28,516.45,495.77,512.82z"/>
			<path d="M552.13,505.26c-1.45-1.57-3.15-2.95-5.08-4.09c-9.19-5.42-20.66-3.54-27.69,3.9c5.55,4.35,7.16,12.24,3.48,18.48
				c-4.01,6.79-12.76,9.05-19.55,5.05c-4.43-2.61-6.93-7.24-7.03-12.02c-0.11-2.69,0.47-5.52,1.93-8.25
				c8.01-15.05,29.1-20.77,45-11.07C546.73,499.43,549.73,502.16,552.13,505.26z"/>
			<path d="M530.5,557.85c2.08-0.47,4.13-1.25,6.08-2.36c9.29-5.25,13.39-16.12,10.46-25.93c-6.54,2.63-14.18,0.07-17.74-6.23
				c-3.88-6.87-1.46-15.58,5.41-19.46c4.47-2.53,9.73-2.38,13.93-0.07c2.38,1.25,4.54,3.17,6.18,5.79
				c9.03,14.46,3.44,35.58-12.91,44.51C538.24,556.09,534.38,557.33,530.5,557.85z"/>
		</g>
	</g>
</g>
</svg>
