<svg xmlns="http://www.w3.org/2000/svg" viewBox="0 0 644 660">
	<style>
	.main-visual__logo-thunderbolt-yellow
	{
		animation: thunder 4s linear infinite;
		animation-delay: 1s;
	}
	.main-visual__logo-thunderbolt-red{
		animation: thunder 4s linear infinite;
		animation-delay: 2s;
	}
	@keyframes thunder {
		0% {
			transform: scale(1);
		}
		1% {
			transform: scale(1.05);
		}
		2% {
			transform: scale(1);
		}
		3% {
			transform: scale(1.05);
		}
		4% {
			transform: scale(1);
		}
	}
	@keyframes sanzui {
		0% {
			transform: translateY(-5px);
		}
		100% {
			transform: translateY(0);
		}
	}
	</style>
  <path d="M143.4 414.2L60 458.6v-16.8l77.4-41.4h11.9l77.4 41.4v16.8l-83.3-44.4zm-35.5 97.6L88 546.1h112.7L190 518.2h17.6l16.3 42.7H68.8v-14.8l20.1-34.4H62.5v-14.3h162v14.3l-116.6.1zm-29.8-39.5v-13.9h131.4v13.9H78.1zM241.5 426.4v-14.1h22.4v-10.9h13.9v10.9h21.9v14.1h-58.2zm4.9 29.8v-12.9h49.2v12.9h-49.2zm0 30v-12.7h49.2v12.7h-49.2zm0 75.1v-58.1h49.2v58.1h-49.2zm36-45.4h-23v32.9h23v-32.9zm26.4-49.9v-10.5h40v-12.1h-36.9v-10.5h36.9v-11.8h-42v-11h18.5l-3.1-8.7h14.5l3.3 8.7h32.4l3.3-8.7H390l-3.1 8.7h18.8v11h-42.2v11.8H401v10.5h-37.5v12.1h42.2V466h-96.9zm83.8 97.2l-8.1-18.3-13.8 18.3h-13l21.9-29-10.3-23h-29.7v15.9l17.4-3.2v11.6l-17.4 3.2v24.4H326v-21.9l-17.2 3.1v-11.4l17.2-3.2v-18.5h-17.2v-11.8H326v-13.6l-17.2 2.2v-10.5l46-5.8v10.7l-15.2 1.8v15.2H366v-25.7h12.9v25.7h26.8v11.8h-23.4l5.4 12.3 4.7-6.3h12.7l-12.7 17 13.2 29h-13zm-2.2-69.5l-3.6-19.9h10.5l3.6 19.9h-10.5zM179.3 371.1L135 300.3H77.9v70.8H66.8V216.8h124.1v83.5h-44.3l46 70.8h-13.3zM77.9 289.9h101.8v-62.3H77.9v62.3zM209.2 370.9v-97.2h10.6v87.6h80.4v-87.6h10.3v97.2zM327.6 371.3V216.9h10.6v57.5h95.6v97H327.6zm10.6-9.6h85.4v-77.6h-85.4v77.6zM484.9 371.3h-34.3V253.1H461v109.6h23.9zM25.7 68h77.4v17.4H25.7zM132.3 85.4h-4.7V68h106v17.4zM217.8 200.7l-51.4-77.8h18.7l52.7 77.8zM310.8 200.7v-15.9h47.9V51.2h-47.9V35H429v16.2h-52.9v133.6H429v15.9zM444.3 34.8h171.6v15.1H444.3zM445.6 76.8v123.8h15.3v-48.9h149.8V76.8H445.6zm148.2 59.5H462.6V92.5h131.1v43.8zM249.5 35.1h50.6v15.1h-50.6zM249.5 88.2h50.6v15.1h-50.6z"/>
  <path fill="#dd8c1c" d="M142.5 3.3h69.8l-64.4 97.2h37L2.8 282.7 108.6 123H63.8z" class="main-visual__logo-thunderbolt-yellow"/>
  <path d="M185 201.2c4 3 8.6 5.5 13.6 7.4 23.7 8.7 49.6-.5 62.8-20.8-14.8-7.8-21.8-25.4-15.9-41.5 6.4-17.5 25.8-26.5 43.4-20 11.4 4.2 19.2 13.9 21.5 25 1.4 6.2 1.2 13-1 20-12.2 38.4-58.9 60.7-100 44.8-9.3-3.6-17.5-8.7-24.4-14.9z" fill="#91ad8e" class="main-visual__logo-sanzui"/>
  <path fill="#ce5a3a" d="M560.2 225.7h74.2l-72.5 111.4h53L506.1 482.8l47.1-111.4h-63z" class="main-visual__logo-thunderbolt-red"/>
  <path fill="#fff" d="M401.039 597.689l84.514-167.49 97.226 49.06-84.514 167.49z"/>
  <path d="M500.1 652.7l-105.1-53 88.5-175.3 105.1 53-88.5 175.3zm-93.2-56.9l89.4 45.1 80.5-159.6-89.4-45.1-80.5 159.6z"/>
  <path d="M494.4 635.3l-80.7-40.7.4-.8 76.4-151.5 80.7 40.7-.4.8-76.4 151.5zM416 593.8l77.5 39.1 75.2-149.1-77.5-39.1L416 593.8z"/>
  <g>
    <path d="M482.8 492.8c.6-1.2 1.6-1.8 1.8-1.7.1 0 .9.8 1.1.9.6.3 1.3.1 2.2-.9 4.5-4.2 11.3-9.2 19.6-9.9 3.9-.3 9.3.1 14.5 2.8 4 2 14.4 8.5 15.8 21 .5 4.6 0 10.4-3.1 16.4-2.9 5.8-7.7 10.9-13.6 14.1-10.3 5.5-20.9 1.8-24.1.1-6.4-3.2-13.3-11.4-14.8-21.2-.9-5.8 1-10.3 1.9-12.4-1.8-2.2-3-6-1.3-9.2zm8.9 19c1.6 4.6 6.4 8.7 10.8 10.9 8.6 4.3 16.7.1 20.7-8 1.2-2.4 2.4-5.4 2.4-8.6 0-6.6-5.1-10.9-7.2-11.9-1.5-.8-2.9-1-4.1-1-3.6-.1-8 .9-14.5 8-5 5.6-6 5.5-8.7 5-.2 1.9-.1 3.8.6 5.6zM487.3 545.7c3.2-.5 6.8.3 9.3 1.5 6.9 3.5 11.6 14.3 8.3 20.9-.8 1.7-1.7 2.4-3.4 3.3-2.3 1.4-3.5 2-4 3-.6 1.2-.4 1.8 1.2 8 1.2 4.5.6 13.3-1.4 17.3-.1.2-3.6 7.2-10.5 3.7-5-2.5-4.7-6.8-3.3-12.6 1.9-8 2-10.8 1.9-13.7-.3-5.5-.4-6.7.5-8.4.5-1 2.6-3.8 5.2-5.6 3.6-2.5 3.9-2.8 4.5-3.8 1.4-2.8-1.5-5.9-3.5-6.9-1.7-.9-4.5-2.2-12 1.2-5.6 2.6-8.8 5.7-10.2 7.1-.8 2.1-6.4 9.7-8.8 12.5-4.8 5.4-8.9 7.9-11.7 8.8-1.9.6-3.3.4-4.8-.3-4.3-2.2-5.3-7.6-3.3-11.4.9-1.8 1.4-2.5 8.6-6.7 4-2.3 7.8-5.8 9.2-8.7.7-1.4.7-1.9.2-4-.4-1.8-.4-3.3.2-4.5 1.2-2.4 4.1-2.2 5.6-1.4 1.7.8 4.5 4.5 5.2 9.4 2.7-2.1 9.9-7.4 17-8.7z"/>
  </g>
</svg>
