<?xml version="1.0" encoding="utf-8"?>
<!-- Generator: Adobe Illustrator 23.0.4, SVG Export Plug-In . SVG Version: 6.00 Build 0)  -->
<svg version="1.1" id="レイヤー_1" xmlns="http://www.w3.org/2000/svg" xmlns:xlink="http://www.w3.org/1999/xlink" x="0px"
	 y="0px" viewBox="0 0 644 660" style="enable-background:new 0 0 644 660;" xml:space="preserve">
<style type="text/css">
	.st0{fill:#DD8C1C;}
	.st1{fill:#91AD8E;}
	.st2{fill:#CE5A3A;}
	.st3{fill:#FFFFFF;}
</style>
<g>
	<path d="M143.4,414.23l-83.43,44.34v-16.83l77.45-41.44h11.94l77.45,41.44v16.83L143.4,414.23z M107.93,511.77l-19.91,34.38h112.74
		l-10.68-27.87h17.55l16.29,42.71H68.84v-14.84l20.09-34.38H62.51v-14.29h161.97v14.29H107.93z M78.07,472.32v-13.94h131.38v13.94
		H78.07z"/>
	<path d="M241.48,426.35v-14.11h22.44v-10.86h13.93v10.86h21.9v14.11H241.48z M246.37,456.21v-12.85h49.22v12.85H246.37z
		 M246.37,486.25v-12.67h49.22v12.67H246.37z M246.37,561.35v-58.09h49.22v58.09H246.37z M282.38,515.93H259.4v32.94h22.98V515.93z
		 M308.8,465.99v-10.5h39.99v-12.12h-36.92v-10.5h36.92V421.1h-41.98v-11.04h18.46l-3.08-8.69h14.48l3.26,8.69h32.39l3.26-8.69h14.3
		l-3.07,8.69h18.82v11.04h-42.17v11.76h37.46v10.5h-37.46v12.12h42.17v10.5H308.8z M392.59,563.16l-8.14-18.28l-13.75,18.28h-13.03
		l21.9-28.95l-10.32-22.98h-29.68v15.92l17.37-3.25v11.58l-17.37,3.25v24.43h-13.57v-21.89l-17.19,3.07v-11.4l17.19-3.25v-18.46
		H308.8v-11.77h17.19v-13.57l-17.19,2.17v-10.49l45.97-5.79v10.67l-15.2,1.81v15.2h26.42v-25.7h12.85v25.7h26.78v11.77h-23.35
		l5.43,12.31l4.71-6.34h12.67l-12.67,17.01l13.21,28.95H392.59z M390.42,493.67l-3.62-19.91h10.49l3.62,19.91H390.42z"/>
</g>
<path d="M179.27,371.07l-44.24-70.79H77.9v70.79H66.75V216.82h124.06v83.47h-44.27l45.97,70.79H179.27z M77.9,289.91h101.77v-62.34
	H77.9V289.91z"/>
<polygon points="209.18,370.88 209.18,273.72 219.75,273.72 219.75,361.28 300.17,361.28 300.17,273.72 310.54,273.72 
	310.54,370.88 "/>
<path d="M327.61,371.34V216.89l10.57,0v57.48h95.6v96.97L327.61,371.34z M338.18,361.74h85.42v-77.57h-85.42V361.74z"/>
<polygon points="484.89,371.34 450.65,371.34 450.65,253.13 461.03,253.13 461.03,362.7 484.89,362.7 "/>
<rect x="25.66" y="67.99" width="77.41" height="17.39"/>
<polygon points="132.3,85.38 127.61,85.38 127.61,67.99 138.79,67.99 233.57,67.99 233.57,85.38 "/>
<polygon points="217.78,200.67 166.38,122.91 185.1,122.91 237.84,200.67 "/>
<polygon points="310.76,200.67 310.76,184.8 358.72,184.8 358.72,51.24 310.76,51.24 310.76,34.99 428.96,34.99 428.96,51.24 
	376.11,51.24 376.11,184.8 428.95,184.8 428.95,200.67 "/>
<rect x="444.32" y="34.81" width="171.59" height="15.09"/>
<path d="M445.64,76.84v64.01l-0.01,59.81h15.3l0-48.92h149.82V76.84H445.64z M593.75,136.27h-131.1V92.51h131.1V136.27z"/>
<rect x="249.47" y="35.06" width="50.58" height="15.07"/>
<rect x="249.47" y="88.19" width="50.58" height="15.07"/>
<polygon class="st0" points="142.52,3.27 212.26,3.27 147.94,100.54 184.94,100.54 2.78,282.73 108.63,122.96 63.82,122.96 "/>
<path class="st1" d="M185.02,201.23c4.04,3.03,8.58,5.53,13.56,7.36c23.67,8.7,49.57-0.54,62.75-20.83
	c-14.76-7.76-21.84-25.45-15.93-41.52c6.44-17.5,25.84-26.48,43.35-20.04c11.41,4.19,19.19,13.9,21.45,24.99
	c1.38,6.2,1.24,13.03-0.98,20c-12.25,38.42-58.88,60.66-99.99,44.85C200.05,212.5,191.92,207.43,185.02,201.23z"/>
<polygon class="st2" points="560.15,225.71 634.36,225.71 561.88,337.15 614.88,337.15 506.13,482.78 553.25,371.35 490.17,371.35 
	"/>
<g>
	<g>
		
			<rect x="437.38" y="444.72" transform="matrix(0.8928 0.4505 -0.4505 0.8928 295.3249 -163.83)" class="st3" width="108.91" height="187.57"/>
		<path d="M500.15,652.67l-105.09-53.03l88.46-175.31l105.09,53.03L500.15,652.67z M406.88,595.75l89.38,45.1l80.53-159.6
			l-89.38-45.1L406.88,595.75z"/>
	</g>
	<path d="M494.36,635.3l-80.68-40.71l0.4-0.79l76.45-151.5l80.68,40.71l-0.4,0.79L494.36,635.3z M416.04,593.81l77.54,39.12
		l75.25-149.14l-77.54-39.12L416.04,593.81z"/>
	<g>
		<path d="M482.75,492.84c0.6-1.19,1.58-1.81,1.82-1.69c0.06,0.03,0.86,0.81,1.1,0.93c0.59,0.3,1.31,0.07,2.23-0.88
			c4.45-4.24,11.29-9.22,19.59-9.87c3.9-0.34,9.26,0.12,14.54,2.79c3.98,2.01,14.43,8.48,15.78,21.01
			c0.49,4.64-0.01,10.36-3.06,16.42c-2.91,5.76-7.66,10.89-13.59,14.09c-10.29,5.47-20.87,1.77-24.14,0.12
			c-6.36-3.21-13.26-11.39-14.8-21.19c-0.87-5.8,1.02-10.29,1.92-12.37C482.31,499.78,481.13,496.05,482.75,492.84z M491.67,511.8
			c1.65,4.56,6.43,8.68,10.76,10.87c8.56,4.32,16.67,0.06,20.74-8.02c1.2-2.38,2.37-5.44,2.38-8.56c-0.01-6.64-5.11-10.85-7.19-11.9
			c-1.48-0.75-2.94-0.96-4.1-1.03c-3.6-0.1-8.04,0.86-14.55,8.01c-5.05,5.58-5.97,5.48-8.71,5
			C490.91,508.14,490.99,510.05,491.67,511.8z"/>
		<path d="M487.32,545.69c3.19-0.55,6.84,0.32,9.28,1.55c6.89,3.48,11.58,14.27,8.26,20.86c-0.84,1.66-1.73,2.4-3.38,3.29
			c-2.32,1.36-3.49,2.04-3.97,2.99c-0.63,1.25-0.39,1.81,1.19,7.98c1.23,4.5,0.61,13.28-1.4,17.26c-0.09,0.18-3.63,7.19-10.46,3.74
			c-5.05-2.55-4.68-6.83-3.32-12.63c1.93-7.97,2.03-10.83,1.9-13.65c-0.34-5.54-0.36-6.67,0.51-8.39c0.48-0.95,2.57-3.77,5.23-5.64
			c3.58-2.51,3.94-2.78,4.45-3.79c1.44-2.85-1.5-5.9-3.46-6.89c-1.73-0.87-4.55-2.22-12.03,1.24c-5.63,2.6-8.77,5.71-10.24,7.13
			c-0.75,2.08-6.37,9.68-8.82,12.47c-4.75,5.43-8.93,7.94-11.67,8.8c-1.88,0.62-3.33,0.4-4.82-0.35c-4.34-2.19-5.27-7.58-3.32-11.44
			c0.9-1.78,1.41-2.5,8.59-6.7c4-2.3,7.76-5.77,9.23-8.68c0.69-1.37,0.66-1.9,0.25-4.05c-0.35-1.82-0.41-3.34,0.17-4.46
			c1.2-2.38,4.08-2.19,5.63-1.41c1.66,0.84,4.54,4.45,5.23,9.43C472.95,552.31,480.2,546.95,487.32,545.69z"/>
	</g>
</g>
</svg>
