<?xml version="1.0" encoding="utf-8"?>
<!-- Generator: Adobe Illustrator 23.0.4, SVG Export Plug-In . SVG Version: 6.00 Build 0)  -->
<svg version="1.1" id="レイヤー_1" xmlns="http://www.w3.org/2000/svg" xmlns:xlink="http://www.w3.org/1999/xlink" x="0px"
	 y="0px" viewBox="0 0 238 126" style="enable-background:new 0 0 238 126;" xml:space="preserve">
<g>
	<path d="M63.4,14.22c26.38,0,47.76,21.38,47.76,47.76s-21.38,47.76-47.76,47.76c-26.38,0-47.76-21.38-47.76-47.76
		S37.02,14.22,63.4,14.22 M63.4,3.05c-32.49,0-58.93,26.44-58.93,58.93s26.44,58.93,58.93,58.93s58.93-26.44,58.93-58.93
		S95.89,3.05,63.4,3.05L63.4,3.05z"/>
	<g>
		<polygon points="61.21,66.09 54.18,56.14 30.21,56.14 61.21,100.15 		"/>
		<polygon points="50.98,51.62 77.23,51.62 67.01,66.1 67.01,100.15 101.19,51.62 88.74,31.97 39.3,31.97 27.03,51.62 50.98,51.62 
					"/>
	</g>
</g>
</svg>
